<?xml version="1.0" encoding="UTF-8" standalone="no"?>
<!-- Generator: visioncortex VTracer -->

<svg
   id="svg"
   version="1.1"
   style="display:block"
   viewBox="0 0 687 687"
   sodipodi:docname="icon.svg"
   width="687"
   height="687"
   inkscape:version="1.4 (e7c3feb1, 2024-10-09)"
   xmlns:inkscape="http://www.inkscape.org/namespaces/inkscape"
   xmlns:sodipodi="http://sodipodi.sourceforge.net/DTD/sodipodi-0.dtd"
   xmlns="http://www.w3.org/2000/svg"
   xmlns:svg="http://www.w3.org/2000/svg">
  <defs
     id="defs127" />
  <sodipodi:namedview
     id="namedview127"
     inkscape:showpageshadow="2"
     inkscape:pageopacity="0.0"
     inkscape:pagecheckerboard="0"
     inkscape:deskcolor="#d1d1d1"
     inkscape:zoom="0.52236183"
     inkscape:cx="422.1212"
     inkscape:cy="478.59546"
     inkscape:window-width="1512"
     inkscape:window-height="945"
     inkscape:window-x="0"
     inkscape:window-y="37"
     inkscape:window-maximized="0"
     inkscape:current-layer="svg" />
  <g
     id="g127"
     transform="translate(-0.46146742,13.752445)">
    <path
       d="m 315.77975,6.0628076 c 1.15644,-0.0057 2.31288,-0.0114 3.50435,-0.017273 2.43987,-0.00941 4.87975,-0.015969 7.31963,-0.019837 3.69758,-0.00969 7.39459,-0.040741 11.09204,-0.072266 2.38216,-0.00653 4.76432,-0.011782 7.14648,-0.015625 1.089,-0.012347 2.17799,-0.024694 3.29998,-0.037415 17.39687,0.04952 31.4137,5.7748464 44.06331,17.5530394 9.78357,10.164167 13.93014,21.048865 13.7915,34.985596 -0.18299,5.468429 -1.04688,9.896366 -3.354,14.826905 -0.34032,0.806953 -0.68063,1.613906 -1.03125,2.445312 -4.45093,9.834149 -11.38154,17.482615 -20.96875,22.554688 -0.66,0 -1.32,0 -2,0 0.0209,1.134294 0.0419,2.268588 0.0635,3.437258 0.0729,4.24352 0.1185,8.48699 0.15625,12.73096 0.02,1.83017 0.0472,3.66028 0.082,5.49023 0.049,2.64396 0.0713,5.28706 0.0889,7.9314 0.0206,0.80662 0.0413,1.61325 0.0626,2.44432 0.003,7.30776 -2.33825,13.45742 -6.76568,19.27833 -3.64889,3.64889 -7.31657,6.6875 -12.6875,6.6875 0,7.59 0,15.18 0,23 3.63,0.66 7.26,1.32 11,2 3.6402,0.93872 7.21887,1.9128 10.8125,3 0.97686,0.29326 1.95373,0.58653 2.9602,0.88867 8.41151,2.63606 16.32392,6.09535 24.2207,9.99805 0.86198,0.41895 1.72396,0.83789 2.61206,1.26953 0.75435,0.37963 1.50869,0.75926 2.28589,1.15039 2.55837,0.84124 3.64997,0.77174 6.10865,-0.30664 1.64384,-1.57757 1.64384,-1.57757 3.05859,-3.60547 0.55107,-0.7367 1.10215,-1.47339 1.66992,-2.23242 0.56397,-0.77537 1.12793,-1.55074 1.70899,-2.34961 1.12251,-1.5152 2.24619,-3.02954 3.37109,-4.54297 0.80184,-1.09562 0.80184,-1.09562 1.61987,-2.21338 1.43693,-1.88003 2.95718,-3.59978 4.55591,-5.3413 2.27799,-2.4486 2.27799,-2.4486 1.84766,-4.91797 -0.33645,-0.67547 -0.67289,-1.35094 -1.01953,-2.04688 -2.0484,-5.04481 -2.81505,-9.3397 -1.8125,-14.75 1.47487,-3.42842 3.65901,-6.11067 6,-9 0.47228,-0.59119 0.94456,-1.18239 1.43115,-1.7915 2.76592,-3.46147 5.55913,-6.89825 8.38135,-10.31397 2.60275,-3.15621 5.09005,-6.38495 7.5625,-9.64453 3.66119,-4.54019 6.79885,-7.59844 12.78125,-8.61718 8.0677,-0.4697 14.11003,3.38787 20.01782,8.57958 0.5613,0.50741 1.12261,1.01482 1.70093,1.5376 1.21354,1.07179 2.42839,2.14209 3.64453,3.21094 0.58862,0.51917 1.17723,1.03834 1.78369,1.57324 2.35368,2.03331 4.80038,3.93693 7.25928,5.84082 9.94667,7.85264 9.94667,7.85264 10.71093,13.72657 0.27514,6.83603 -1.0858,10.56964 -5.27343,15.89843 -0.87205,1.11955 -0.87205,1.11955 -1.76172,2.26172 -1.31913,1.66162 -2.65053,3.31356 -3.99219,4.95703 -2.51493,3.11415 -4.94402,6.28613 -7.37109,9.46875 -10.49353,13.65309 -10.49353,13.65309 -15.875,15.3125 -2.97266,0.23047 -2.97266,0.23047 -6.0625,0.1875 -1.53334,-0.01 -1.53334,-0.01 -3.09766,-0.0195 -2.44057,-0.14435 -4.50824,-0.46905 -6.83984,-1.16797 -11.41589,11.14917 -11.41589,11.14917 -18,24 1.31583,1.33001 1.31583,1.33001 3.125,2.75 9.23804,7.87128 19.42875,16.87785 25.875,27.25 0,0.66 0,1.32 0,2 1.69666,-1.64193 3.35386,-3.30771 5,-5 0.98226,-1.00547 0.98226,-1.00547 1.98437,-2.03125 6.92465,-7.36664 13.47077,-15.87904 18.01563,-24.96875 -0.71286,0.0348 -1.42571,0.0696 -2.16016,0.10547 -6.06893,0.17153 -10.5873,0.0917 -15.83984,-3.10547 -0.82935,-1.93799 -0.82935,-1.93799 -1,-4 1.87533,-2.14761 3.70976,-3.97397 5.8125,-5.875 16.24333,-15.54662 26.22516,-35.53742 33.72705,-56.54907 0.29761,-0.8333 0.59522,-1.6666 0.90185,-2.52515 0.25467,-0.73565 0.50934,-1.4713 0.77173,-2.22924 0.78687,-1.82154 0.78687,-1.82154 2.78687,-3.82154 2.5039,0.1211 2.5039,0.1211 5,1 1.15234,1.72266 1.15234,1.72266 1.9375,4.0625 0.32613,0.91008 0.65226,1.82016 0.98828,2.75782 0.35449,1.04929 0.70898,2.09859 1.07422,3.17968 7.90785,22.84491 19.25033,42.53759 36,60 -1.24947,2.78684 -1.8857,3.91794 -4.4375,5.75 -4.89856,1.7188 -9.42332,1.4969 -14.5625,1.25 7.23012,17.1085 20.05909,31.58181 33.37109,44.25782 1.62891,1.74218 1.62891,1.74218 2.19141,4.30468 -0.5625,2.4375 -0.5625,2.4375 -2.5625,4.125 -8.34957,3.65294 -15.98566,3.54039 -25,3.3125 6.74819,15.41429 18.16105,29.16106 30,41 0.125,2.4375 0.125,2.4375 -1,5 -5.53876,2.76938 -10.86521,3.58818 -17,4 5.67377,8.89836 11.59816,17.25185 18.55468,25.19532 2.44532,2.80468 2.44532,2.80468 4.57813,5.67187 0.61617,0.70383 1.23234,1.40766 1.86719,2.13281 0.99,0 1.98,0 3,0 1.49753,-3.76624 2.99062,-7.53422 4.47998,-11.30371 0.50502,-1.2765 1.01117,-2.55256 1.51855,-3.82812 2.95082,-7.42087 5.73406,-14.81851 8.03565,-22.46875 1.00175,-2.48869 1.82695,-3.79561 3.96582,-5.39942 3.34192,0.24453 4.60543,0.60544 7,3 0.74378,2.50698 1.39391,4.98221 1.99609,7.52344 0.39064,1.58093 0.78245,3.16156 1.17529,4.74194 0.20559,0.83337 0.41117,1.66674 0.62299,2.52536 7.14027,28.69155 16.54585,60.09823 35.8775,83.12333 1.61518,2.53678 1.59745,4.1337 1.32813,7.08593 -5.26723,3.24728 -9.3995,3.37334 -15.375,3.1875 -0.83145,-0.0135 -1.66289,-0.0271 -2.51954,-0.041 -2.03543,-0.0351 -4.07054,-0.0889 -6.10546,-0.14649 8.8376,21.32487 19.10443,42.26327 34.82031,59.41944 1.17969,1.58056 1.17969,1.58056 1.86719,4.83056 -0.6875,2.75 -0.6875,2.75 -2.58594,4.37891 -4.4349,1.96051 -8.61307,1.93984 -13.41406,2.05859 -0.93135,0.0342 -1.8627,0.0683 -2.82227,0.10352 -2.28829,0.0821 -4.57621,0.1514 -6.86523,0.20898 5.8994,17.57402 15.33201,32.63269 27.28906,46.69141 1.71094,2.30859 1.71094,2.30859 1.71094,4.93359 -1.26326,3.00024 -2.12691,3.82795 -5,5.375 -6.18207,1.86564 -11.87068,2.38433 -18.3125,2.375 -0.92193,10e-4 -1.84385,0.003 -2.79371,0.004 -6.87723,-0.10673 -12.73426,-1.14768 -18.89379,-4.37891 5.18414,8.35536 10.40924,16.68117 15.75,24.9375 0.69246,1.07568 0.69246,1.07568 1.39892,2.1731 2.42136,3.74634 4.92789,7.3963 7.53858,11.0144 2.47529,3.71653 3.18054,6.36119 2.3125,10.875 -2.1368,3.3894 -3.17748,4.72583 -7,6 -0.59813,0.92813 -1.19625,1.85625 -1.8125,2.8125 -6.40909,9.33896 -19.36364,11.51656 -29.84375,13.51172 -6.28351,1.13176 -12.58207,2.1551 -18.89063,3.13672 -2.89445,0.45185 -5.78305,0.92801 -8.67187,1.41406 -37.30553,5.99249 -75.48809,5.54754 -113.15772,5.83448 -1.71742,0.0139 -3.43483,0.0278 -5.15225,0.0417 -3.19513,0.0257 -6.39019,0.0449 -9.58539,0.0596 -13.04929,0.0802 -25.90603,0.6112 -38.80826,2.71724 -11.98695,1.83826 -24.10317,1.62003 -36.1965,1.64064 -3.39476,0.007 -6.78939,0.023 -10.18411,0.0413 -9.64508,0.0519 -19.29009,0.10026 -28.93531,0.11592 -38.08296,-0.19441 -38.08296,-0.19441 -75.76171,4.67407 -1.21222,0.24501 -1.21222,0.24501 -2.44892,0.49497 -4.37518,0.91422 -8.6807,1.99633 -12.98858,3.19253 -2.28989,0.60987 -4.58024,1.21801 -6.8711,1.82422 -0.95705,0.26257 -1.91409,0.52513 -2.90014,0.79566 -19.66871,4.88062 -38.72149,0.0997 -57.61426,-5.61817 -13.45742,-4.06165 -26.63269,-7.24316 -40.6145,-8.87671 -1.04026,-0.12515 -1.04026,-0.12515 -2.10154,-0.25284 -13.60283,-1.61784 -27.15045,-2.15695 -40.83987,-2.38388 -13.56286,-0.26137 -26.826853,-1.41872 -40.251709,-3.27758 -2.459972,-0.33957 -4.92134,-0.66724 -7.383057,-0.9939 -1.59059,-0.2161 -3.181088,-0.43287 -4.771484,-0.65039 -0.723008,-0.0959 -1.446016,-0.19182 -2.190933,-0.29064 -4.482804,-0.62968 -8.692571,-1.66302 -13.023911,-2.96327 -1.395047,-0.3085 -2.794432,-0.59879 -4.199219,-0.85937 -23.135715,-4.54429 -23.135715,-4.54429 -30.003906,-13.75391 -1.825314,-2.96273 -2.7685157,-4.92352 -2.9843749,-8.44922 2.9509829,-7.2998 11.5096679,-11.14623 18.0624999,-14.8125 0.929092,-0.5232 1.858184,-1.04639 2.81543,-1.58545 23.813761,-13.26207 49.273444,-22.64332 75.309574,-30.53955 0.33,-2.64 0.66,-5.28 1,-8 -1.01321,0.48211 -2.02641,0.96422 -3.07032,1.46094 -1.35148,0.6382 -2.70304,1.27621 -4.054684,1.91406 -0.997734,0.47567 -0.997734,0.47567 -2.015625,0.96094 -22.625636,10.64736 -56.901941,15.06592 -81.078125,6.86328 -8.9076996,-3.84082 -8.9076996,-3.84082 -10.7812499,-6.19922 -0.484375,-2.91015 -0.484375,-2.91015 0,-6 1.9492187,-2.09765 1.9492187,-2.09765 4.6874999,-4.0625 10.021196,-7.66783 18.990238,-16.63308 26.3125,-26.9375 -1.173691,-0.63228 -1.173691,-0.63228 -2.371094,-1.27734 -1.011914,-0.54785 -2.023828,-1.0957 -3.066406,-1.66016 -1.009336,-0.54527 -2.018672,-1.09054 -3.058594,-1.65234 -2.503906,-1.41016 -2.503906,-1.41016 -3.503906,-2.41016 -0.363281,-2.29687 -0.363281,-2.29687 0,-5 2.019531,-2.07812 2.019531,-2.07812 4.8125,-4.25 10.466039,-8.73739 17.050977,-21.76177 23.1875,-33.75 -0.978398,0.0232 -1.956797,0.0464 -2.964844,0.0703 -11.095336,0.15273 -21.045358,-0.76383 -31.035156,-6.07032 -2,-3 -2,-3 -1.976562,-5.35547 1.332463,-3.60831 3.737477,-5.54564 6.601562,-7.95703 1.106943,-0.97341 2.211123,-1.94998 3.3125,-2.92968 0.798574,-0.70915 0.798574,-0.70915 1.613281,-1.43262 3.119136,-2.8522 5.764942,-6.07171 8.449219,-9.3252 0.721875,-0.83402 1.44375,-1.66804 2.1875,-2.52734 10.288544,-12.01979 19.61471,-24.93885 27.8125,-38.47266 -1.160156,0.0464 -2.320312,0.0928 -3.515625,0.14063 -10.855828,0.30268 -20.475452,0.0194 -29.734375,-6.39063 -0.5775,-0.5775 -1.155,-1.155 -1.75,-1.75 0.2704,-3.80767 0.679177,-5.62995 3.214844,-8.55468 0.898476,-0.76571 1.796953,-1.53141 2.722656,-2.32032 0.895899,-0.78117 1.791797,-1.56234 2.714844,-2.36718 2.347656,-1.75782 2.347656,-1.75782 4.347656,-1.75782 0.256524,-0.58652 0.513047,-1.17304 0.777344,-1.77734 1.334395,-2.42579 2.767509,-3.89794 4.785156,-5.78516 4.92315,-4.80804 9.164082,-10.05258 13.4375,-15.4375 0.89958,-1.11992 1.799326,-2.2397 2.699219,-3.35937 7.626843,-9.54357 14.53585,-19.47053 21.300781,-29.64063 -1.134375,0.0464 -2.26875,0.0928 -3.4375,0.14063 -14.977913,0.42827 -14.977913,0.42827 -21.5625,-4.14063 -0.66,-0.66 -1.32,-1.32 -2,-2 0.241283,-4.3218 1.72899,-6.11057 4.875,-8.9375 23.604176,-22.59257 40.314184,-54.78378 51.715084,-84.99487 0.29254,-0.77255 0.58508,-1.5451 0.88648,-2.34106 0.2483,-0.67467 0.49661,-1.34933 0.75244,-2.04444 0.771,-1.68213 0.771,-1.68213 2.771,-3.68213 3,-0.25 3,-0.25 6,0 2.21634,2.21635 2.6439,3.4988 3.625,6.4375 7.25973,20.54236 16.38018,40.98129 29.375,58.5625 2.45674,-2.97678 4.75915,-6.03128 6.98828,-9.17968 0.54205,-0.76442 1.0841,-1.52883 1.64258,-2.31641 1.11351,-1.57521 2.22295,-3.15331 3.32812,-4.73438 3.19461,-4.48829 6.52818,-8.46163 10.49878,-12.28173 1.7998,-1.73627 3.42892,-3.57816 5.04224,-5.4878 5.04062,-5.82998 10.37734,-11.30121 16.5,-16 0.66,0 1.32,0 2,0 -4.91466,-8.0278 -10.265,-15.54839 -16,-23 -0.79664,0.23203 -0.79664,0.23203 -1.60938,0.46875 -2.90458,0.64546 -5.66691,0.89032 -8.64062,1.03125 -1.07766,0.0722 -2.15532,0.14438 -3.26563,0.21875 -7.74115,-1.59683 -12.28704,-8.37626 -16.4668,-14.64843 -0.78213,-1.21043 -0.78213,-1.21043 -1.58007,-2.44532 -1.06079,-1.61396 -2.1246,-3.22595 -3.19141,-4.83593 -0.52223,-0.78859 -1.04446,-1.57717 -1.58252,-2.38965 -2.27343,-3.27903 -4.74526,-6.38061 -7.26099,-9.47608 -3.57118,-4.89709 -2.91789,-11.14728 -2.40258,-16.92334 2.6628,-6.29389 8.68518,-9.9693 14,-14 1.06496,-0.82793 2.12872,-1.65741 3.1914,-2.48828 20.47613,-15.96398 20.47613,-15.96398 29.14453,-15.85156 7.62575,0.97278 12.13101,6.66231 16.66407,12.33984 3.68605,4.92249 7.13756,10.01358 10.63476,15.0708 1.11199,1.57135 2.28501,3.09936 3.47461,4.6128 3.89902,5.05944 4.67177,9.1245 4.37109,15.51172 -0.68078,3.974 -2.30798,6.44084 -4.48046,9.80468 0.35941,3.08683 1.55693,5.07592 3.39843,7.53125 0.47953,0.64582 0.95907,1.29164 1.45313,1.95703 0.50273,0.66387 1.00547,1.32774 1.52344,2.01172 0.495,0.66387 0.99,1.32774 1.5,2.01172 1.36907,1.83398 2.74568,3.662 4.125,5.48828 1,1.33334 2,2.66667 3,4 5.36532,-0.57455 9.51283,-2.46353 14.3125,-4.75 8.7073,-4.01165 17.44414,-6.77695 26.6875,-9.25 1.02996,-0.30808 2.05992,-0.61617 3.12109,-0.93359 6.31249,-1.87136 12.30576,-2.63958 18.87891,-3.06641 0,-7.26 0,-14.52 0,-22 -1.98,-0.66 -3.96,-1.32 -6,-2 -5.71477,-3.50705 -9.97264,-8.62212 -12,-15 -0.80265,-7.51592 -0.31329,-15.26239 -0.0176,-22.80102 0.78397,-10.70423 0.78397,-10.70423 -3.33545,-20.056645 -2.84515,-2.127226 -2.84515,-2.127226 -5.84424,-3.623291 C 263.31869,87.838225 258.77698,76.667769 255.64304,67.265933 254.27819,50.17435 256.55158,37.701598 267.38522,24.074526 280.2524,9.9648107 297.51804,6.1334192 315.77975,6.0628076 Z"
       style="fill:#032845"
       id="path1" />
    <path
       d="m 415.64304,252.26593 c 1.24716,1.05768 1.24716,1.05768 2.51953,2.13672 2.54846,2.23543 5.02258,4.52866 7.48047,6.86328 0.72751,0.68667 0.72751,0.68667 1.46972,1.38721 7.04024,6.68487 13.12445,13.50405 18.53028,21.61279 0.71671,1.03383 1.43343,2.06766 2.17187,3.13282 9.27303,13.62735 16.5839,28.92909 20.82813,44.86718 0.22703,0.81985 0.45407,1.63969 0.68798,2.48438 6.62467,24.79658 7.91709,54.74929 0.31202,79.51562 -0.37005,1.23243 -0.37005,1.23243 -0.74756,2.48975 -3.61815,11.7562 -8.38009,22.71934 -14.25244,33.51025 -0.33145,0.62133 -0.6629,1.24266 -1.0044,1.88282 -4.28491,8.00464 -9.01819,15.26474 -14.9956,22.11718 -0.69868,0.80824 -1.39735,1.61649 -2.11719,2.44922 -2.25512,2.55608 -4.55554,5.06026 -6.88281,7.55078 -0.82114,0.88688 -1.64227,1.77375 -2.48829,2.6875 -15.77209,16.44972 -34.75362,26.91686 -56.09228,34.45557 -1.4939,0.52912 -2.98215,1.07494 -4.45996,1.64746 -12.76851,4.7242 -26.30953,5.71321 -39.79883,5.60059 -2.29243,-0.0162 -4.58311,0 -6.87549,0.019 -13.4571,0.0208 -25.95106,-2.23379 -38.72265,-6.59766 -1.3314,-0.45173 -1.3314,-0.45173 -2.6897,-0.9126 -36.29711,-12.70252 -67.52307,-40.3879 -84.82593,-74.71923 -6.16627,-12.84449 -10.86742,-26.29449 -14.04687,-40.18067 -0.18402,-0.75386 -0.36803,-1.50772 -0.55762,-2.28442 -2.01216,-9.32294 -1.92776,-18.78329 -1.94238,-28.27808 -0.002,-0.90834 -0.004,-1.81669 -0.006,-2.75256 0.0234,-15.61816 1.58614,-29.76198 6.50611,-44.68494 0.45753,-1.41297 0.45753,-1.41297 0.92431,-2.85449 12.91723,-38.86587 41.05864,-71.47961 77.4773,-90.09839 48.55508,-23.88821 111.82846,-18.54836 153.59839,16.95288 z"
       style="fill:#fcfdfd"
       id="path2" />
    <path
       d="m 323.70554,187.95343 c 0.67247,0.002 1.34495,0.004 2.03781,0.007 36.9036,0.18848 74.60673,11.30029 103.89969,34.30597 0.74121,0.55043 1.48242,1.10086 2.24609,1.66797 6.10312,4.58006 11.71329,9.67915 17.25293,14.91455 1.4227,1.34356 2.85608,2.67579 4.29004,4.00733 11.36501,10.8901 20.43298,23.76322 28.21094,37.41015 0.35658,0.61891 0.71317,1.23782 1.08056,1.87549 10.28165,18.00069 16.79623,36.84761 20.91944,57.12451 0.25943,1.2396 0.25943,1.2396 0.5241,2.50424 1.28792,6.52114 1.79601,12.763 1.81183,19.40201 0.007,1.00479 0.0133,2.00957 0.0202,3.0448 0.0101,2.11428 0.0148,4.22859 0.0145,6.3429 0.004,3.1708 0.0407,6.34018 0.0786,9.51074 0.0702,12.93677 -1.2586,24.66959 -4.44921,37.19531 -0.42135,1.93649 -0.83929,3.87373 -1.25,5.8125 -12.25966,46.82145 -43.48972,88.66857 -85.27344,113.29297 -28.2265,15.38186 -58.90211,24.33478 -91.16406,24.14453 -1.3366,0.007 -2.67319,0.015 -4.00977,0.0234 -7.67361,-0.0152 -14.81716,-0.59865 -22.30273,-2.27344 -1.1911,-0.23461 -2.38219,-0.46922 -3.60938,-0.71093 -3.47066,-0.73385 -6.93183,-1.50113 -10.39062,-2.28907 -1.17434,-0.26426 -2.34868,-0.52851 -3.5586,-0.80078 -22.54379,-5.50855 -44.48003,-16.54231 -62.4414,-31.19922 -1.27231,-0.97066 -1.27231,-0.97066 -2.57032,-1.96093 -35.71655,-27.82693 -58.74008,-68.43355 -67.67968,-112.47657 -0.16323,-0.80397 -0.32646,-1.60794 -0.49463,-2.43628 -2.0049,-10.37358 -2.44187,-20.61475 -2.44068,-31.15576 -0.002,-2.13684 -0.0204,-4.27316 -0.0393,-6.40991 -0.0525,-12.52714 1.08516,-24.75887 4.47461,-36.87305 0.21833,-0.79503 0.43667,-1.59006 0.66162,-2.40918 0.67921,-2.43133 1.37988,-4.85538 2.08838,-7.27832 0.31662,-1.10384 0.31662,-1.10384 0.63964,-2.22998 6.00995,-20.59958 15.7519,-39.4622 28.36036,-56.77002 0.43215,-0.6057 0.86431,-1.21139 1.30957,-1.83545 11.11531,-15.46759 25.09083,-29.25829 40.69043,-40.16455 1.10825,-0.81095 2.21631,-1.62216 3.32421,-2.43359 28.11811,-20.10513 63.30054,-31.03072 97.73829,-30.87891 z m -38.0625,38.3125 c -1.24782,0.37641 -2.49563,0.75282 -3.78125,1.14063 -23.20838,7.41336 -41.74801,20.22057 -59.21875,36.85937 -0.71801,0.66516 -1.43602,1.33032 -2.17579,2.01563 -18.30485,17.46114 -30.23364,41.13416 -37.82421,64.98437 -0.2612,0.80357 -0.5224,1.60714 -0.79151,2.43506 -4.21461,13.60873 -4.70356,27.18538 -4.77099,41.31494 -0.009,0.86047 -0.0177,1.72094 -0.0268,2.60749 -0.29595,42.45391 18.59381,80.50919 47.83933,110.39251 7.87593,7.83953 16.3182,14.39096 25.75,20.25 0.60988,0.37947 1.21977,0.75894 1.84814,1.1499 18.12375,10.9975 40.7255,18.85291 61.97217,19.08838 0.73241,0.01 1.46483,0.0198 2.21944,0.03 42.47615,0.45489 79.06495,-11.40565 109.96025,-41.26824 0.86367,-0.81211 1.72734,-1.62422 2.61718,-2.46093 25.8945,-24.92648 43.88591,-63.1834 44.85157,-99.31641 0.0488,-3.05403 0.049,-6.10585 0.0312,-9.16016 -10e-4,-0.80143 -0.003,-1.60287 -0.004,-2.42859 -0.0628,-14.30566 -1.56859,-27.82488 -5.49566,-41.63391 -0.21931,-0.77601 -0.43861,-1.55203 -0.66455,-2.35156 -4.70421,-15.95553 -12.01231,-32.57693 -22.33545,-45.64844 -0.67805,-0.95004 -1.3561,-1.90008 -2.05469,-2.8789 -22.62883,-31.04798 -56.72482,-53.01365 -94.88281,-59.1211 -20.73406,-2.84985 -42.97233,-2.06683 -63.0625,4 z"
       style="fill:#7d8a9f"
       id="path3" />
    <path
       d="m 248.05734,565.02741 c 14.87503,4.02641 30.11598,6.6323 45.3357,8.98852 0.73629,0.11562 1.47259,0.23123 2.2312,0.35034 11.869,1.74206 23.81823,2.0572 35.79614,2.06763 1.38221,0.003 2.76441,0.007 4.14662,0.0101 2.87993,0.006 5.75982,0.008 8.63976,0.007 2.8998,-9e-5 5.79944,0.007 8.69922,0.0205 16.57262,0.0772 32.97123,-0.1886 49.47038,-1.97064 3.3972,-0.35246 6.79817,-0.60746 10.20418,-0.86017 1.49853,-0.11215 1.49853,-0.11215 3.02734,-0.22656 0.6716,-0.049 1.3432,-0.098 2.03516,-0.14844 -2.2058,4.38838 -4.57002,8.52102 -7.59375,12.39844 -6.02353,7.09359 -6.02353,7.09359 -7.71875,15.85156 0.96005,3.94988 0.96005,3.94988 4.3125,5.75 2.03034,0.30285 2.03034,0.30285 4.2891,0.26172 1.32046,0.0112 1.32046,0.0112 2.66759,0.0226 0.96789,-0.002 1.93578,-0.004 2.933,-0.006 1.02754,0.006 2.05507,0.0116 3.11374,0.0176 3.45942,0.0171 6.9187,0.0199 10.37816,0.0228 2.47332,0.009 4.94664,0.0195 7.41995,0.0304 5.33328,0.0217 10.66652,0.0373 15.99982,0.0474 7.71109,0.0146 15.42211,0.0401 23.13316,0.0683 12.51017,0.0455 25.02035,0.0821 37.53056,0.11314 12.15367,0.0302 24.30731,0.0645 36.46094,0.10449 0.74895,0.002 1.4979,0.005 2.26954,0.007 3.75719,0.0124 7.51438,0.0248 11.27157,0.0373 31.17759,0.1036 62.35521,0.19264 93.53287,0.27259 -3.09083,6.50973 -6.20012,9.59966 -13.00855,12.2312 -12.21849,4.33347 -24.78427,6.30128 -37.57056,8.24585 -2.88216,0.4406 -5.75678,0.90993 -8.63183,1.39405 -37.30268,6.00998 -75.49669,5.55144 -113.16553,5.83838 -1.71742,0.0139 -3.43483,0.0278 -5.15225,0.0417 -3.19513,0.0257 -6.39019,0.0449 -9.58539,0.0596 -13.04929,0.0802 -25.90603,0.6112 -38.80826,2.71724 -11.98695,1.83826 -24.10317,1.62003 -36.1965,1.64064 -3.39476,0.007 -6.78939,0.023 -10.18411,0.0413 -9.64508,0.0519 -19.29009,0.10026 -28.93531,0.11592 -38.08296,-0.19441 -38.08296,-0.19441 -75.76171,4.67407 -0.80815,0.16334 -1.61629,0.32668 -2.44892,0.49497 -4.37518,0.91422 -8.6807,1.99633 -12.98858,3.19253 -2.28989,0.60987 -4.58024,1.21801 -6.8711,1.82422 -0.95705,0.26257 -1.91409,0.52513 -2.90014,0.79566 -19.66871,4.88062 -38.72149,0.0997 -57.61426,-5.61817 -13.45742,-4.06165 -26.63269,-7.24316 -40.6145,-8.87671 -0.69351,-0.0834 -1.38702,-0.16687 -2.10154,-0.25284 -13.60283,-1.61784 -27.15045,-2.15695 -40.83987,-2.38388 -13.56286,-0.26137 -26.826853,-1.41872 -40.251709,-3.27758 -2.459972,-0.33957 -4.92134,-0.66724 -7.383057,-0.9939 -1.59059,-0.2161 -3.181088,-0.43287 -4.771484,-0.65039 -0.723008,-0.0959 -1.446016,-0.19182 -2.190933,-0.29064 -4.482804,-0.62968 -8.692571,-1.66302 -13.023911,-2.96327 -1.395047,-0.3085 -2.794432,-0.59879 -4.199219,-0.85937 -22.240376,-4.36843 -22.240376,-4.36843 -28.800781,-12.14063 -0.6875,-2.1875 -0.6875,-2.1875 -1,-4 0.78375,-0.18562 1.5675,-0.37125 2.375,-0.5625 3.179813,-1.26096 5.011728,-2.36697 7.6875,-4.375 8.327641,-6.06344 17.770777,-10.42075 26.9375,-15.0625 0.693677,-0.37858 1.387354,-0.75716 2.102051,-1.14721 1.897949,-0.85279 1.897949,-0.85279 4.897949,-0.85279 -0.130195,0.85981 -0.260391,1.71961 -0.394531,2.60547 -1.358992,11.64668 1.011996,20.26228 8.082031,29.64453 2.301777,2.82265 2.301777,2.82265 5.3125,4.75 12.324492,0.7441 12.324492,0.7441 24.140625,-2.24609 6.911989,-2.80255 15.371019,-3.12291 22.273439,-0.41406 1.18336,0.54785 2.36672,1.0957 3.58594,1.66015 10.42127,4.72637 23.17656,5.00385 34.0625,1.4375 4.84407,-2.12741 9.25514,-4.98305 13.625,-7.94922 2.3125,-1.48828 2.3125,-1.48828 5.3125,-2.48828 0.33,-0.99 0.66,-1.98 1,-3 0.92812,-0.7425 1.85625,-1.485 2.8125,-2.25 3.5813,-2.88926 5.3547,-5.49791 7.1875,-9.75 0.19435,-3.53195 0.19435,-3.53195 -1,-7 -2.39148,-1.78563 -4.19679,-2.83798 -6.875,-4 -0.70818,-0.32903 -1.41636,-0.65806 -2.146,-0.99707 -8.46131,-3.83952 -17.17765,-7.04074 -25.979,-10.00293 -1.15758,-0.39058 -2.31516,-0.78117 -3.50782,-1.18359 -10.91602,-3.38002 -22.23125,-5.00604 -33.49218,-6.81641 3.07136,-2.04758 5.23646,-2.7237 8.78515,-3.62109 1.74326,-0.44159 1.74326,-0.44159 3.52173,-0.89209 1.23935,-0.30503 2.47871,-0.61005 3.75562,-0.92432 1.2632,-0.31276 2.5264,-0.62551 3.82788,-0.94775 39.87084,-9.69756 78.01796,-8.63831 117.52392,2.14673 z"
       style="fill:#d3975a"
       id="path4" />
    <path
       d="m 123.64304,223.26593 c 2.46536,2.20772 3.68379,4.15732 4.91015,7.21875 0.34483,0.84039 0.68965,1.68078 1.04492,2.54663 0.36545,0.90243 0.7309,1.80485 1.10743,2.73462 6.1257,14.67258 13.15856,28.56899 22.41796,41.51953 1.88504,3.69739 1.7469,5.05392 0.51954,8.98047 -1.12734,2.52503 -2.27715,4.93665 -3.5625,7.375 -0.32936,0.64067 -0.65871,1.28133 -0.99805,1.94141 -0.80585,1.56498 -1.62164,3.12483 -2.43945,4.68359 -1.58501,-0.93467 -3.16794,-1.87286 -4.75,-2.8125 -0.88172,-0.52207 -1.76344,-1.04414 -2.67188,-1.58203 -2.57812,-1.60547 -2.57812,-1.60547 -4.71875,-3.24219 -1.91987,-1.5534 -1.91987,-1.5534 -4.85937,-2.36328 2.47862,5.70798 4.9676,10.17782 9.4375,14.5625 3.49567,3.79192 3.49567,3.79192 3.76953,6.4375 -0.53811,2.42839 -1.35446,4.66219 -2.20703,7 -0.69236,2.57986 -1.35988,5.15745 -2,7.75 -0.17475,0.69134 -0.3495,1.38268 -0.52954,2.09497 -6.05212,24.29633 -6.72764,51.52231 -2.47046,76.15503 0.19879,1.34343 0.39532,2.6872 0.58984,4.03125 1.60966,10.57107 4.50501,20.60902 7.73096,30.79004 0.94915,3.04465 1.81887,6.10789 2.6792,9.17871 -4.80517,-1.68096 -8.0488,-4.30701 -11.91407,-7.53906 -2.07103,-1.74777 -2.07103,-1.74777 -5.08593,-1.46094 0.74018,6.58066 5.20993,9.84175 10,14 2.23833,1.63904 4.49866,3.15751 6.85937,4.61328 1.05961,0.68643 1.05961,0.68643 2.14063,1.38672 0.79793,0.51434 1.59586,1.02867 2.41796,1.5586 3.72587,3.52294 5.74375,7.69952 8.14454,12.1914 14.8634,26.84876 35.50145,48.80498 60.68725,66.17676 0.70133,0.48565 1.40266,0.97131 2.12525,1.47168 0.62648,0.42974 1.25296,0.85948 1.89843,1.30225 1.74099,1.31017 3.22576,2.72312 4.72657,4.29931 -4.38128,0.13738 -8.336,-0.16177 -12.62265,-1.07977 -7.17398,-1.53168 -14.00673,-2.14077 -21.33829,-1.9671 -0.8508,0.0189 -1.7016,0.0378 -2.57819,0.0572 -3.48277,0.0907 -6.96357,0.20174 -10.44427,0.3529 -12.11485,0.49096 -21.51617,-0.85982 -32.70655,-5.6455 -14.54194,-6.1472 -30.69172,-4.89541 -45.31005,0.28222 -3.28276,1.34988 -6.493089,2.85194 -9.709965,4.35059 -8.412273,3.79922 -17.303597,5.70205 -26.290039,7.64941 -1.055742,0.2475 -2.111484,0.495 -3.199219,0.75 -14.328036,2.94328 -29.777359,2.20956 -43.800781,-1.75 2.437652,-2.44629 4.880707,-4.88426 7.359375,-7.28906 6.463307,-6.31545 13.27076,-13.00582 17.89624,-20.83667 1.744385,-1.87427 1.744385,-1.87427 4.385498,-2.34082 1.573704,0.0163 1.573704,0.0163 3.1792,0.033 1.167165,-0.006 2.334331,-0.0119 3.536865,-0.0181 1.243381,0.005 2.486763,0.009 3.767822,0.0142 19.687253,-0.32793 36.187977,-4.77553 51.582034,-17.78906 1.70656,-2.34072 1.53911,-3.94523 1.29297,-6.77344 -4.78277,0.54578 -8.16605,1.95058 -12.375,4.25 -5.199546,2.72719 -10.393616,4.87821 -16.000004,6.625 -0.961721,0.30406 -0.961721,0.30406 -1.942871,0.61426 -14.383785,4.29621 -30.394079,3.75172 -44.682129,-0.48926 0.763125,-1.01062 1.52625,-2.02125 2.3125,-3.0625 0.546563,-0.73476 1.093125,-1.46953 1.65625,-2.22656 1.505191,-2.00885 3.026592,-3.99935 4.5625,-5.98437 0.929027,-1.21988 1.856035,-2.4413 2.78125,-3.66407 0.72691,-0.94939 0.72691,-0.94939 1.468506,-1.91797 2.543823,-3.43867 4.575853,-6.7147 6.19165,-10.68359 4.584537,-11.11786 4.584537,-11.11786 9.208496,-13.66016 5.254313,-1.95605 10.711023,-2.98266 16.184571,-4.1333 10.451781,-2.6483 23.508691,-9.53887 30.634281,-17.66748 0.33,-0.99 0.66,-1.98 1,-3 -5.45859,2.09472 -10.75219,4.35694 -16.000004,6.9375 -15.518706,7.22013 -32.285071,10.16682 -49.3125,10.3125 -1.236291,0.0141 -1.236291,0.0141 -2.497559,0.0286 -5.624184,-0.03 -10.754624,-0.84741 -16.189941,-2.27857 1.47053,-3.10573 2.743323,-4.84914 5.4375,-7 16.741215,-14.22852 29.994712,-33.69147 41.5,-52.25 4.534264,-7.1531 8.069501,-9.87279 16.023438,-12.53125 8.147736,-3.26747 15.181076,-8.98167 21.515626,-14.96875 1.52344,-1.25 1.52344,-1.25 3.52344,-1.25 0,-1.32 0,-2.64 0,-4 -4.55605,0.58677 -8.06824,2.51919 -12,4.75 -19.208504,10.54959 -39.154078,14.8559 -61.000004,14.25 0,-0.66 0,-1.32 0,-2 1.574219,-1.55078 1.574219,-1.55078 3.6875,-3.3125 21.027238,-17.62169 36.274341,-41.30123 51.125004,-64.0625 0.52722,-0.808 1.05445,-1.616 1.59765,-2.44848 6.65657,-9.65645 6.65657,-9.65645 11.58985,-20.17652 -0.9552,0.60328 -1.91039,1.20657 -2.89454,1.82813 -11.945218,7.43589 -21.787433,11.71661 -36.105464,12.17187 0.763125,-0.86625 1.52625,-1.7325 2.3125,-2.625 19.529278,-22.92168 35.880704,-49.17601 46.687504,-77.375 z"
       style="fill:#267d47"
       id="path5" />
    <path
       d="m 507.64304,440.26593 c 18.81,0 37.62,0 57,0 4.50214,10.12982 4.50214,10.12982 6.58593,15.25782 0.45633,1.12148 0.91266,2.24296 1.38282,3.39843 0.46406,1.14469 0.92812,2.28938 1.40625,3.46875 0.45632,1.12149 0.91265,2.24297 1.38281,3.39844 0.4589,1.12922 0.91781,2.25844 1.39062,3.42188 0.70432,1.72585 0.70432,1.72585 1.42286,3.48657 0.96668,2.41424 1.90546,4.83981 2.81835,7.2749 3.46201,9.18805 7.88292,17.3108 13.11036,25.60571 0.74198,1.19528 1.48287,2.39125 2.22265,3.58789 1.43251,2.31498 2.8705,4.62639 4.31275,6.93531 1.71128,2.7563 3.39277,5.52637 5.05444,8.31274 3.24532,5.43776 6.60625,10.80068 9.97266,16.16406 5.46122,8.71487 10.8847,17.45172 16.2788,26.20825 3.97186,6.42506 8.04962,12.77602 12.23389,19.06495 0.42249,0.64203 0.84498,1.28406 1.28027,1.94555 0.36763,0.55237 0.73525,1.10473 1.11402,1.67383 1.03052,1.79492 1.03052,1.79492 3.03052,6.79492 -17.16,0 -34.32,0 -52,0 -4.80703,-9.61404 -9.51135,-19.11346 -13.8125,-28.9375 -0.50137,-1.1359 -1.00273,-2.27181 -1.51929,-3.44214 -1.5605,-3.53819 -3.11522,-7.07887 -4.66821,-10.62036 -1.53758,-3.50417 -3.07528,-7.00829 -4.61402,-10.51196 -0.94215,-2.1468 -1.88251,-4.29438 -2.8208,-6.44287 -0.82674,-1.88716 -1.65933,-3.77176 -2.49927,-5.65308 -0.87316,-1.95951 -1.72119,-3.9302 -2.56201,-5.90381 -1.85642,-3.07153 -3.27525,-3.93458 -6.5039,-5.48828 -3.47776,-0.50136 -3.47776,-0.50136 -7.26954,-0.51172 -1.0215,-0.0269 -1.0215,-0.0269 -2.06364,-0.0544 -2.15971,-0.0539 -4.31921,-0.0879 -6.47932,-0.12139 -1.47074,-0.0332 -2.94144,-0.0677 -4.41211,-0.10351 -3.59159,-0.0847 -7.18325,-0.15161 -10.77539,-0.20899 0.42582,-5.16586 1.00231,-10.21519 2.03906,-15.29687 1.19141,-6.32314 1.34312,-12.53098 1.33594,-18.95313 10e-4,-1.20624 0.003,-2.41248 0.004,-3.65527 -0.13426,-11.62289 -1.88332,-22.76504 -4.3789,-34.09473 -3.47148,-0.74957 -3.47148,-0.74957 -7,-1 0.39832,1.34578 0.39832,1.34578 0.80468,2.71875 11.94352,42.19463 1.45967,84.00194 -11.9414,124.57422 -1.95016,5.9081 -3.71592,11.86089 -5.40479,17.84839 -1.35812,4.75827 -1.35812,4.75827 -2.45849,5.85864 -2.61689,0.0951 -5.20729,0.12556 -7.82447,0.11353 -0.81944,1.4e-4 -1.63889,2.9e-4 -2.48317,4.4e-4 -2.7217,-7e-4 -5.44333,-0.008 -8.16502,-0.0163 -1.88187,-0.002 -3.76374,-0.003 -5.64561,-0.004 -4.96322,-0.004 -9.9264,-0.0137 -14.88961,-0.0247 -5.06052,-0.0102 -10.12105,-0.0148 -15.18158,-0.0198 -9.93686,-0.0107 -19.8737,-0.0278 -29.81054,-0.0488 0.78565,-1.42878 1.57312,-2.85656 2.36132,-4.28393 0.65749,-1.19281 0.65749,-1.19281 1.32825,-2.40972 1.78835,-3.14749 3.7684,-6.13228 5.81043,-9.11885 0.88123,-1.3066 1.76138,-2.61393 2.64062,-3.92187 0.46342,-0.68901 0.92684,-1.37801 1.4043,-2.08789 9.7304,-14.56296 19.10075,-29.37169 28.45508,-44.17774 0.96486,-1.52657 0.96486,-1.52657 1.94921,-3.08398 6.87432,-10.89221 13.71912,-21.76904 19.98291,-33.02637 1.26321,-2.2353 2.56116,-4.4488 3.86084,-6.66308 8.92969,-15.2794 16.62845,-30.7801 23.20704,-47.22657 z"
       style="fill:#01ade9"
       id="path6" />
    <path
       d="m 527.64304,159.26593 c 0.66,0 1.32,0 2,0 0.22349,0.73356 0.44698,1.46712 0.67724,2.2229 2.36529,7.45796 5.29395,14.30309 8.94776,21.2146 0.52199,0.99629 1.04398,1.99257 1.58178,3.01905 3.68948,6.87754 7.74056,13.0337 12.73462,19.02002 1.9617,2.40466 3.53434,4.82554 5.0586,7.52343 -6.79287,-0.21912 -10.87774,-1.69045 -16.54297,-5.42968 -2.72817,-1.7436 -5.54382,-3.1622 -8.45703,-4.57032 2.27584,4.60617 4.56899,9.20307 6.88427,13.78955 0.70314,1.39305 1.40427,2.78712 2.10254,4.18262 8.14439,16.19983 18.41298,32.25621 31.76319,44.65283 1.25,1.375 1.25,1.375 1.25,3.375 -13.75784,-0.0464 -25.1388,-4.17835 -36.04688,-12.58203 -1.998,-1.6004 -1.998,-1.6004 -4.95312,-2.41797 1.61248,4.83746 3.78362,8.07713 7.125,11.9375 3.69291,4.36002 6.54078,8.72771 9.25,13.75 10.83579,20.8405 10.83579,20.8405 27.625,36.3125 0,0.99 0,1.98 0,3 -14.78133,-0.77904 -14.78133,-0.77904 -21,-3 5.97375,17.75417 18.28747,34.06143 30.89062,47.71485 1.10938,1.28515 1.10938,1.28515 1.10938,2.28515 -16.11492,0.84159 -31.76626,-5.01667 -43.8125,-15.8125 -1.98912,-1.93434 -3.91333,-3.88067 -5.76172,-5.94922 -1.48855,-1.56614 -1.48855,-1.56614 -4.42578,-1.23828 -0.49617,7.12206 2.59434,10.70142 7,16 5.66431,6.17374 12.41359,9.63043 20,13 0.82886,0.40477 1.65773,0.80953 2.51171,1.22657 9.01852,3.93586 18.80807,3.58381 28.48829,3.77343 -1.49154,5.2 -3.81434,9.51366 -6.5625,14.125 -0.44183,0.74484 -0.88366,1.48968 -1.33887,2.25708 -4.77392,7.92161 -9.85163,15.78512 -16.72363,22.05542 -2.67772,2.28856 -2.67772,2.28856 -2.30079,5.08203 0.69876,2.59692 0.69876,2.59692 2.85938,3.8086 6.04283,2.22482 11.62716,3.39786 18.06641,3.67187 -1.48363,6.26419 -5.24163,10.91514 -9,16 -0.66,-0.33 -1.32,-0.66 -2,-1 -0.49056,-1.99494 -0.97868,-3.99061 -1.44141,-5.99218 -0.71287,-2.56233 -1.64017,-4.16318 -3.55859,-6.00782 -3.19731,-1.06733 -6.24099,-1.15245 -9.59473,-1.20532 -1.12086,-0.0199 -2.24172,-0.0399 -3.39655,-0.0604 -1.20428,-0.0167 -2.40857,-0.0334 -3.64935,-0.0506 -1.85598,-0.0312 -1.85598,-0.0312 -3.74945,-0.063 -3.28131,-0.0543 -6.56265,-0.10454 -9.84405,-0.15284 -3.3517,-0.0503 -6.70331,-0.10604 -10.05494,-0.16114 -6.57024,-0.10708 -13.14055,-0.20887 -19.71093,-0.30664 0.55343,-4.62867 1.14997,-8.94783 2.4375,-13.4375 3.52802,-13.71731 3.99587,-27.90422 4,-42 0.003,-0.81768 0.005,-1.63535 0.008,-2.47781 0.007,-14.02725 -1.62338,-27.01954 -4.88523,-40.69431 -0.74408,-3.17305 -1.35317,-6.13168 -1.56054,-9.39038 2.375,-3.1875 2.375,-3.1875 5,-6 0.85279,-2.21735 0.85279,-2.21735 1,-4 -0.92813,0.47438 -1.85625,0.94875 -2.8125,1.4375 -3.1875,1.5625 -3.1875,1.5625 -6.1875,2.5625 -0.30293,-0.96679 -0.60586,-1.93359 -0.91797,-2.92968 -2.2404,-7.00236 -4.52248,-13.54053 -8.26172,-19.92188 -1.10872,-2.9038 -0.7953,-4.19343 0.17969,-7.14844 1.28698,-2.54018 2.59579,-4.94444 4.0625,-7.375 0.40122,-0.66757 0.80244,-1.33514 1.21582,-2.02295 3.23356,-5.19125 6.83613,-8.91926 11.72168,-12.60205 2.77983,-2.49702 4.78907,-4.36722 6,-8 -3.81576,1.51041 -7.17567,3.05616 -10.5625,5.375 -7.23572,4.67277 -15.94594,7.43773 -24.4375,8.625 -3.32032,-5.07812 -3.32032,-5.07812 -4,-7 1.2083,-3.99411 4.41211,-6.92662 7.125,-10 7.75248,-8.97529 13.80755,-18.84336 19.875,-29 1.06993,-1.78408 2.14024,-3.56794 3.21093,-5.35156 0.52207,-0.87012 1.04414,-1.74023 1.58203,-2.63672 2.40235,-4.0039 4.80469,-8.00781 7.20704,-12.01172 -3.58614,1.39262 -6.73488,2.9593 -10,5 -5.4466,3.40412 -9.48473,5.30304 -16,5 2.55794,-3.91721 5.23541,-7.62854 8.125,-11.3125 9.6163,-12.76892 17.02105,-26.83581 22.875,-41.6875 z"
       style="fill:#257c48"
       id="path7" />
    <path
       d="m 322.83054,210.01593 c 0.71703,-0.001 1.43406,-0.002 2.17282,-0.003 11.44681,0.0109 22.45751,0.68121 33.63968,3.25305 0.97694,0.21681 0.97694,0.21681 1.97363,0.43799 25.45892,5.78496 48.71644,17.64979 67.80371,35.49561 1.99804,1.85758 4.05393,3.58462 6.16016,5.3164 10.49756,9.21172 18.55215,21.0813 26.0625,32.75 0.37254,0.57831 0.74507,1.15661 1.1289,1.75244 8.52464,13.47506 14.01427,28.37541 18.2461,43.68506 0.35795,1.29358 0.35795,1.29358 0.72314,2.61328 3.28452,12.50161 4.27936,24.76751 4.21436,37.63672 -0.003,1.12576 -0.003,1.12576 -0.006,2.27426 -0.0428,10.48461 -0.39672,20.67197 -2.81527,30.91275 -0.55005,2.37773 -1.01838,4.76575 -1.4878,7.16065 -2.64725,12.87484 -7.15426,24.23013 -13.0039,35.96484 -0.32871,0.68288 -0.65743,1.36576 -0.9961,2.06934 -7.01417,14.55949 -16.83039,27.29921 -28.0039,38.93066 -0.45923,0.49033 -0.91846,0.98066 -1.39161,1.48584 -12.15825,12.95049 -25.83539,23.33557 -41.60839,31.51416 -0.58572,0.30777 -1.17144,0.61553 -1.77491,0.93262 -10.04256,5.21614 -20.27668,8.33028 -31.22509,11.06738 -1.76344,0.46407 -1.76344,0.46407 -3.5625,0.9375 -7.84864,2.04065 -15.38242,3.21393 -23.51172,3.30078 -0.75744,0.01 -1.51487,0.0197 -2.29526,0.0298 -31.66707,0.32677 -31.66707,0.32677 -46.63052,-4.2681 -0.82162,-0.24669 -1.64324,-0.49339 -2.48975,-0.74756 -23.81865,-7.33054 -44.79298,-19.29082 -63.17041,-36.13916 -1.92376,-1.73748 -3.88116,-3.36853 -5.90234,-4.98828 -4.81497,-4.1191 -8.56448,-9.14096 -12.4375,-14.125 -0.41766,-0.51611 -0.83532,-1.03221 -1.26563,-1.56396 -6.58796,-8.14814 -11.762,-16.77323 -16.60937,-26.06104 -0.53529,-1.02432 -1.07057,-2.04864 -1.62207,-3.104 -5.33953,-10.48992 -9.57895,-21.15905 -12.19043,-32.646 -0.19916,-0.81726 -0.39832,-1.63453 -0.60352,-2.47656 -3.10109,-13.25844 -4.15228,-26.45835 -4.14648,-40.02344 -7.4e-4,-0.75791 -0.001,-1.51581 -0.002,-2.29669 0.0355,-14.06289 1.68183,-27.23695 5.43973,-40.82831 0.24105,-0.89783 0.48211,-1.79566 0.73046,-2.7207 5.69751,-20.60447 15.76586,-39.73382 29.26954,-56.2793 0.47357,-0.58491 0.94713,-1.16982 1.43505,-1.77246 29.71185,-36.47771 72.29532,-59.4316 119.75245,-59.47754 z m -37.1875,16.25 c -1.24782,0.37641 -2.49563,0.75282 -3.78125,1.14063 -23.20838,7.41336 -41.74801,20.22057 -59.21875,36.85937 -0.71801,0.66516 -1.43602,1.33032 -2.17579,2.01563 -18.30485,17.46114 -30.23364,41.13416 -37.82421,64.98437 -0.2612,0.80357 -0.5224,1.60714 -0.79151,2.43506 -4.21461,13.60873 -4.70356,27.18538 -4.77099,41.31494 -0.009,0.86047 -0.0177,1.72094 -0.0268,2.60749 -0.29595,42.45391 18.59381,80.50919 47.83933,110.39251 7.87593,7.83953 16.3182,14.39096 25.75,20.25 0.60988,0.37947 1.21977,0.75894 1.84814,1.1499 18.12375,10.9975 40.7255,18.85291 61.97217,19.08838 0.73241,0.01 1.46483,0.0198 2.21944,0.03 42.47615,0.45489 79.06495,-11.40565 109.96025,-41.26824 0.86367,-0.81211 1.72734,-1.62422 2.61718,-2.46093 25.8945,-24.92648 43.88591,-63.1834 44.85157,-99.31641 0.0488,-3.05403 0.049,-6.10585 0.0312,-9.16016 -10e-4,-0.80143 -0.003,-1.60287 -0.004,-2.42859 -0.0628,-14.30566 -1.56859,-27.82488 -5.49566,-41.63391 -0.21931,-0.77601 -0.43861,-1.55203 -0.66455,-2.35156 -4.70421,-15.95553 -12.01231,-32.57693 -22.33545,-45.64844 -0.67805,-0.95004 -1.3561,-1.90008 -2.05469,-2.8789 -22.62883,-31.04798 -56.72482,-53.01365 -94.88281,-59.1211 -20.73406,-2.84985 -42.97233,-2.06683 -63.0625,4 z"
       style="fill:#062948"
       id="path8" />
    <path
       d="m 619.64304,337.26593 c 2.65616,2.65616 2.95749,5.45228 3.75,9 5.40383,22.5721 13.79269,49.48301 28.47656,67.77344 1.77344,2.22656 1.77344,2.22656 1.77344,4.22656 -9.71515,0.82682 -16.77228,-4.29295 -24.61719,-9.51172 -2.38562,-1.61941 -2.38562,-1.61941 -5.38281,-2.48828 9.24367,26.26697 21.15836,51.96352 37.72754,74.43726 2.03292,2.75927 3.87543,5.42517 5.27246,8.56274 -13.07695,1.37652 -24.55735,-5.94884 -35,-13 -1.88843,-1.158 -3.784,-2.30446 -5.6875,-3.4375 -0.82887,-0.49371 -1.65774,-0.98742 -2.51172,-1.49609 -0.59426,-0.35192 -1.18852,-0.70383 -1.80078,-1.06641 2.25078,5.92313 4.79149,10.94767 10.26562,14.44922 8.3032,5.4633 10.40015,12.21937 13.67578,21.16406 4.91494,13.29121 12.04727,25.47734 21.0586,36.38672 0.55171,0.67934 1.10343,1.35867 1.67187,2.0586 1.09204,1.32824 2.20609,2.6384 3.32813,3.9414 -7.33016,3.66508 -19.99018,1.36159 -27.625,-0.75 -2.13709,-0.71483 -4.26422,-1.46087 -6.375,-2.25 -0.7902,-0.26554 -1.58039,-0.53109 -2.39454,-0.80468 -9.20102,-3.69449 -13.99249,-15.25389 -18.91796,-23.32032 -1.12852,-1.83748 -2.25743,-3.67471 -3.38672,-5.51172 -0.55349,-0.90153 -1.10699,-1.80307 -1.67725,-2.73193 -1.51429,-2.4543 -3.04271,-4.89879 -4.58057,-7.33838 -0.4527,-0.71849 -0.9054,-1.43698 -1.37182,-2.17724 -0.83533,-1.32325 -1.67259,-2.64529 -2.51221,-3.96583 -6.15893,-9.77537 -6.15893,-9.77537 -6.15893,-15.1499 1.42578,-1.52734 1.42578,-1.52734 3.3125,-2.9375 3.00847,-2.40556 5.01478,-4.52028 6.6875,-8.0625 0,-0.66 0,-1.32 0,-2 -4.17167,0.81723 -7.28866,2.84738 -10.87891,5.03907 -2.12109,0.96093 -2.12109,0.96093 -5.12109,-0.0391 -1.16221,-2.39835 -2.14027,-4.69913 -3.0625,-7.1875 -0.25588,-0.66064 -0.51176,-1.32129 -0.77539,-2.00195 -0.50343,-1.31099 -0.99659,-2.62596 -1.47901,-3.94482 -0.61864,-1.68965 -1.27197,-3.3665 -1.9292,-5.04151 -0.85466,-3.20164 -0.65306,-4.66503 0.2461,-7.82422 1.37622,-2.22973 1.37622,-2.22973 3.11328,-4.51953 4.20342,-5.79164 7.63501,-11.90088 11.07422,-18.16797 1.20164,-2.17067 2.40346,-4.34124 3.60546,-6.51172 0.55479,-1.00853 1.10957,-2.01706 1.68116,-3.05615 1.26517,-2.27569 2.56468,-4.52287 3.88916,-6.76416 1.33373,-2.42873 2.20332,-4.27175 2.63672,-6.98047 -0.72704,0.51949 -1.45407,1.03899 -2.20313,1.57422 -18.20822,12.62904 -18.20822,12.62904 -28.79687,11.42578 1.92562,-3.28455 3.9616,-6.4123 6.1875,-9.5 15.25801,-21.73305 25.08092,-45.92329 34.8125,-70.5 z"
       style="fill:#267c48"
       id="path9" />
    <path
       d="m 324.64304,262.26593 c 1.90136,0.13233 1.90136,0.13233 4,1 1.37207,2.11377 1.37207,2.11377 2.57812,4.88282 0.65742,1.50433 0.65742,1.50433 1.32813,3.03906 0.44343,1.05703 0.88687,2.11406 1.34375,3.20312 0.68836,1.55074 0.68836,1.55074 1.39062,3.13282 2.34349,5.46813 4.00167,9.7756 3.35938,15.74218 -1.98,0.99 -1.98,0.99 -4,2 0.33,17.82 0.66,35.64 1,54 9.42305,-9.27912 9.42305,-9.27912 18.21484,-18.92968 2.27165,-2.63453 4.61875,-5.19706 6.97266,-7.75782 0.46245,-0.50362 0.9249,-1.00724 1.40136,-1.52612 2.53002,-2.7515 5.06771,-5.49576 7.61035,-8.2356 0.53021,-0.5721 1.06042,-1.1442 1.60669,-1.73364 1.01407,-1.09358 2.02944,-2.18596 3.04639,-3.27685 2.35542,-2.53994 4.62943,-5.10726 6.81177,-7.7981 2.33594,-2.74219 2.33594,-2.74219 5.33594,-4.74219 4.25318,0.0788 6.47168,0.61782 9.9375,3.125 2.0625,2.875 2.0625,2.875 2.9375,6.0625 -1.25872,5.48442 -4.40095,8.28088 -8.3042,12.21338 -2.41665,2.46022 -4.76072,4.98728 -7.11597,7.50611 -4.19328,4.4805 -8.41416,8.9351 -12.63062,13.39379 -1.43733,1.52022 -2.87411,3.04096 -4.3103,4.56226 -1.33935,1.41872 -2.67991,2.83628 -4.02197,4.25244 -1.84184,1.95145 -3.67042,3.9141 -5.49194,5.88452 -0.65469,0.70367 -1.30937,1.40734 -1.98389,2.13233 -0.94964,1.04631 -0.94964,1.04631 -1.91846,2.11377 -0.57097,0.62447 -1.14195,1.24894 -1.73022,1.89233 -1.47928,2.01384 -2.05037,3.39288 -2.36743,5.86157 0.30937,0.86625 0.61875,1.7325 0.9375,2.625 2.042,6.48638 1.91195,12.25339 -0.875,18.5 -3.44218,6.23527 -9.24516,12.37732 -16.0625,14.875 -7.61546,0.78298 -15.98618,1.56162 -22.32422,-3.37109 -10.82837,-10.52547 -10.82837,-10.52547 -11.15821,-19.1626 -0.069,-8.20761 0.75216,-14.10873 6.48243,-20.46631 3.4178,-3.13459 6.5844,-5.52813 11,-7 0.10134,-7.61707 0.17144,-15.23397 0.21972,-22.85156 0.0201,-2.59186 0.0474,-5.18368 0.082,-7.77539 0.0485,-3.72342 0.0712,-7.44624 0.0889,-11.16992 0.0206,-1.16054 0.0413,-2.32108 0.0626,-3.51679 4.6e-4,-1.62122 4.6e-4,-1.62122 9.2e-4,-3.2752 0.009,-0.95043 0.0178,-1.90085 0.0269,-2.88007 -0.61775,-3.25057 -2.11406,-4.31022 -4.48101,-6.53107 -0.0672,-6.53447 2.99717,-12.44726 5.5,-18.375 0.62455,-1.514 0.62455,-1.514 1.26171,-3.05859 3.08155,-7.40967 3.08155,-7.40967 4.23829,-8.56641 z"
       style="fill:#082c4a"
       id="path10" />
    <path
       d="m 308.2402,82.830142 c 1.09819,-0.01914 2.19639,-0.03828 3.32785,-0.058 1.17717,-0.0033 2.35434,-0.0067 3.56717,-0.01012 1.21931,-0.01 2.43861,-0.01997 3.69486,-0.03026 2.5771,-0.01517 5.15426,-0.02223 7.73141,-0.02174 3.93573,-0.0066 7.86892,-0.06104 11.8042,-0.11792 2.5065,-0.0088 5.01302,-0.01476 7.51953,-0.01758 1.75968,-0.03233 1.75968,-0.03233 3.5549,-0.06532 6.35703,0.05312 10.30562,0.523112 14.92487,5.077912 2.49285,3.274563 3.52597,5.86667 3.56857,9.98497 0.0128,0.841224 0.0255,1.682448 0.0387,2.549166 0.002,0.9011 0.004,1.80221 0.007,2.73062 0.01,1.40181 0.01,1.40181 0.0202,2.83194 0.0101,1.97527 0.0148,3.95058 0.0145,5.92587 0.004,3.0136 0.0407,6.02573 0.0786,9.03907 0.006,1.92187 0.01,3.84374 0.0117,5.76562 0.0144,0.89706 0.0288,1.79411 0.0435,2.71835 -0.0403,5.54861 -0.73524,8.78532 -4.50448,13.13321 -0.6484,0.77352 -1.2968,1.54704 -1.96485,2.344 -4.96323,2.70798 -10.03913,2.20486 -15.59765,2.1521 -1.22405,10e-4 -2.44809,0.003 -3.70923,0.004 -2.58556,-0.002 -5.17112,-0.0132 -7.75659,-0.0339 -3.95714,-0.029 -7.91293,-0.0206 -11.87012,-0.008 -2.51303,-0.006 -5.02605,-0.0146 -7.53906,-0.0254 -1.18344,0.003 -2.36688,0.006 -3.58619,0.009 -1.10464,-0.0127 -2.20929,-0.0254 -3.34741,-0.0384 -0.96865,-0.005 -1.9373,-0.0108 -2.9353,-0.0164 -4.44609,-0.63991 -7.01535,-2.63394 -9.9729,-5.92064 -2.35007,-4.73514 -2.29599,-8.72148 -2.25195,-13.93969 -0.004,-1.00067 -0.008,-2.00134 -0.0116,-3.03234 -0.003,-2.10878 0.005,-4.21759 0.0214,-6.32631 0.0214,-3.22431 1.7e-4,-6.4464 -0.0254,-9.67065 0.003,-2.05274 0.008,-4.10548 0.0156,-6.15821 -0.008,-0.96156 -0.0162,-1.923125 -0.0245,-2.913828 0.0582,-4.160382 0.15578,-6.738195 2.27649,-10.384751 4.13534,-3.703472 7.2829,-5.410602 12.87646,-5.47705 z"
       style="fill:#7c8aa0"
       id="path11" />
    <path
       d="m 310.43649,29.1048 c 1.42266,-0.01441 1.42266,-0.01441 2.87406,-0.02911 1.0198,-0.0043 2.0396,-0.0085 3.0903,-0.01288 1.05823,-0.0057 2.11646,-0.0114 3.20676,-0.01727 2.24096,-0.0094 4.48194,-0.01598 6.72293,-0.01984 3.40389,-0.0097 6.80718,-0.04068 10.21093,-0.07226 2.18229,-0.0065 4.36458,-0.01178 6.54688,-0.01563 1.00765,-0.01235 2.01531,-0.02469 3.0535,-0.03741 10.44769,0.03241 19.45864,2.50708 27.50119,9.36554 6.23216,6.806007 8.49338,12.774757 8.3125,22 -0.78243,7.511284 -5.30074,12.65412 -10.3125,18 -3.2413,-0.644824 -5.61426,-1.866199 -8.45899,-3.520996 -6.06671,-3.079494 -11.4895,-3.203679 -18.19726,-3.143067 -1.77438,-0.0072 -1.77438,-0.0072 -3.5846,-0.0145 -2.4876,-0.0034 -4.97525,0.0057 -7.46277,0.0267 -3.78601,0.02678 -7.56906,2e-4 -11.35498,-0.03174 -2.42839,0.0033 -4.85678,0.0097 -7.28515,0.01953 -1.12008,-0.01012 -2.24015,-0.02024 -3.39417,-0.03067 -6.71034,0.09902 -11.33918,1.168893 -17.12891,4.624329 -2.13317,1.070404 -2.13317,1.070404 -6.13317,1.070404 -4.43204,-3.565134 -7.3875,-8.625001 -9,-14 -0.97046,-8.990241 0.38383,-15.95942 5.9375,-23.125 6.2904,-6.814606 15.61288,-10.960226 24.85595,-11.036133 z"
       style="fill:#fafbfc"
       id="path12" />
    <path
       d="m 121.64304,583.26593 c 1.38783,0.21004 1.38783,0.21004 2.80371,0.42432 18.73003,2.93476 36.32981,8.41761 54.19629,14.57568 0,4.4168 -0.80648,5.75371 -3.72266,8.9375 -9.88991,8.9569 -22.76295,16.81157 -36.33984,17.6875 -7.01357,-0.3813 -13.7438,-3.57225 -19.98047,-6.625 -7.61092,-3.49464 -17.56867,-3.40897 -25.46094,-0.875 -2.13194,0.90306 -4.257281,1.82189 -6.375,2.75782 -4.986544,1.78492 -9.897811,1.72153 -15.121094,1.11718 -0.66,-0.33 -1.32,-0.66 -2,-1 -0.308594,-2.22265 -0.308594,-2.22265 -0.4375,-5.0625 -0.25254,-3.63845 -0.624277,-6.55097 -2.125,-9.875 -2.162368,-5.18112 -2.151469,-10.54907 -1.4375,-16.0625 1.810534,-3.35284 3.05218,-4.50114 6.375,-6.25 15.471424,-4.4204 33.899234,-2.20657 49.625004,0.25 z"
       style="fill:#248f45"
       id="path13" />
    <path
       d="m 189.51804,127.45343 c 6.71517,1.74595 10.3799,8.75046 14.125,14.1875 1.02067,1.46626 2.04151,2.9324 3.0625,4.39844 0.73283,1.07073 0.73283,1.07073 1.48046,2.16309 0.94212,1.33424 1.92236,2.64269 2.94532,3.91601 2.44706,3.0864 3.45727,4.82253 4.125,8.80762 -0.78,4.24775 -1.99005,5.23538 -5.42578,7.77734 -1.00418,0.75797 -2.00836,1.51594 -3.04297,2.29688 -1.55655,1.12148 -1.55655,1.12148 -3.14453,2.26562 -0.94489,0.70641 -1.88977,1.41282 -2.86329,2.14063 -2.68689,1.99142 -5.40417,3.93123 -8.13671,5.85937 -0.83016,0.60457 -1.66032,1.20914 -2.51563,1.83203 -0.77859,0.55043 -1.55719,1.10086 -2.35937,1.66797 -1.01707,0.72703 -1.01707,0.72703 -2.05469,1.46875 -2.68377,1.33682 -4.1066,1.57505 -7.07031,1.03125 -4.56114,-3.74664 -7.96278,-8.68058 -11.5,-13.375 -0.55559,-0.72961 -1.11118,-1.45922 -1.6836,-2.21093 -1.6165,-2.12998 -3.21755,-4.27083 -4.8164,-6.41407 -0.49565,-0.64904 -0.99129,-1.29808 -1.50196,-1.96679 -2.32684,-3.11459 -3.47396,-4.85256 -3.99804,-8.78321 0.71394,-4.64064 3.28059,-6.18197 6.90625,-8.88672 0.65621,-0.49145 1.31242,-0.98291 1.98852,-1.48925 2.86306,-2.12364 5.7275,-4.24541 8.59302,-6.36573 1.77787,-1.33265 3.52691,-2.69226 5.26611,-4.0747 6.70918,-5.21618 6.70918,-5.21618 11.6211,-6.2461 z"
       style="fill:#7d8ba0"
       id="path14" />
    <path
       d="m 477.64304,128.26593 c 3.30862,1.9649 6.10388,4.47873 9,7 1.5539,1.29261 3.1079,2.58512 4.66528,3.87354 1.51785,1.25852 3.02803,2.52627 4.53784,3.79443 1.82969,1.52559 3.69266,3.01233 5.58984,4.45313 2.20704,1.8789 2.20704,1.8789 3.26954,4.7539 -0.12984,6.49159 -6.38566,12.10693 -10.375,16.9375 -4.2024,5.08973 -8.27341,10.17828 -11.92969,15.6836 -2.78751,2.38486 -5.15839,2.44937 -8.75781,2.5039 -2.49219,-1.3789 -2.49219,-1.3789 -4.875,-3.5625 -0.92168,-0.82371 -1.84336,-1.64742 -2.79297,-2.49609 -0.51482,-0.46519 -1.02964,-0.93038 -1.56006,-1.40967 -2.02772,-1.75281 -4.1309,-3.37669 -6.26026,-5.00439 -0.77553,-0.6032 -1.55106,-1.20641 -2.35009,-1.82788 -1.54709,-1.20156 -3.10522,-2.38904 -4.67481,-3.56104 -5.30882,-4.20988 -5.30882,-4.20988 -6.18994,-8.8064 0.77018,-3.6498 1.50705,-4.94755 4.14063,-7.51953 3.36121,-3.48019 6.31966,-7.03743 9.1875,-10.9375 11.04248,-14.93309 11.04248,-14.93309 19.375,-13.875 z"
       style="fill:#7e8ba0"
       id="path15" />
    <path
       d="m 315.95554,15.027651 c 1.08651,-0.0081 2.17303,-0.01614 3.29248,-0.02446 2.2962,-0.01379 4.59243,-0.02454 6.88867,-0.03242 2.3233,-0.01149 4.64658,-0.03188 6.96972,-0.06152 18.76368,-0.238985 36.44148,-0.03236 51.09913,13.23169 7.44394,7.915742 12.86455,16.923804 13.1875,27.9375 -0.70298,11.623372 -5.82965,21.931048 -14.4375,29.8125 -1.69922,1.476562 -1.69922,1.476562 -3.3125,2.375 -1.485,-0.495 -1.485,-0.495 -3,-1 0,-1.32 0,-2.64 0,-4 1.41638,-1.112871 2.83548,-2.222488 4.26953,-3.3125 6.43678,-6.276951 8.86146,-14.691504 9.04297,-23.375 -0.0597,-6.399195 -0.94841,-10.887898 -4.3125,-16.3125 -0.4125,-0.685782 -0.825,-1.371563 -1.25,-2.078125 -6.36806,-9.479723 -15.90363,-14.234555 -26.75,-16.921875 -4.28479,-0.512771 -8.50446,-0.5628 -12.81641,-0.53125 -1.76657,-0.0057 -1.76657,-0.0057 -3.56883,-0.0116 -2.47145,-0.0027 -4.94293,0.0045 -7.41432,0.02136 -3.75693,0.02145 -7.51194,1.31e-4 -11.2688,-0.02539 -2.41602,0.0026 -4.83204,0.0078 -7.24805,0.01563 -1.10864,-0.0081 -2.21728,-0.01619 -3.35951,-0.02454 -12.32115,0.146342 -22.92797,4.421523 -32.01158,12.743287 -6.55843,6.828568 -9.72603,15.368706 -9.57813,24.710937 0.83081,9.700905 4.40323,16.138104 11.33984,22.847656 2.12092,2.482283 2.59215,4.047629 2.92579,7.253907 -4.79422,-0.42302 -7.70433,-2.680293 -11,-6 -1.65302,-2.206122 -2.99327,-4.520199 -4.3125,-6.9375 -0.34612,-0.594903 -0.69223,-1.189805 -1.04883,-1.802735 -4.51826,-8.05889 -5.30845,-18.924145 -2.95508,-27.853515 0.95947,-2.261335 2.0465,-4.304196 3.31641,-6.40625 0.65355,-1.138887 0.65355,-1.138887 1.32031,-2.300782 6.27256,-10.197197 16.02305,-17.658358 27.67969,-20.699218 6.10771,-1.093029 12.11694,-1.193951 18.3125,-1.238282 z"
       style="fill:#7487a0"
       id="path16" />
    <path
       d="m 324.64304,262.26593 c 1.90136,0.13233 1.90136,0.13233 4,1 1.37207,2.11377 1.37207,2.11377 2.57812,4.88282 0.65742,1.50433 0.65742,1.50433 1.32813,3.03906 0.44343,1.05703 0.88687,2.11406 1.34375,3.20312 0.4589,1.03383 0.91781,2.06766 1.39062,3.13282 2.34349,5.46813 4.00167,9.7756 3.35938,15.74218 -1.98,0.99 -1.98,0.99 -4,2 0,18.15 0,36.3 0,55 -0.33,0 -0.66,0 -1,0 -0.0103,-0.56154 -0.0206,-1.12308 -0.0312,-1.70164 -0.10784,-5.82329 -0.22246,-11.64642 -0.34108,-17.4695 -0.0434,-2.17575 -0.0851,-4.35153 -0.125,-6.52734 -0.0575,-3.12015 -0.12127,-6.24011 -0.18628,-9.36011 -0.0167,-0.97916 -0.0334,-1.95832 -0.0506,-2.96715 -0.0199,-0.90086 -0.0399,-1.80172 -0.0604,-2.72987 -0.0233,-1.1958 -0.0233,-1.1958 -0.0471,-2.41576 0.0378,-1.84714 0.0378,-1.84714 -1.15821,-2.82863 -0.0155,0.84232 -0.0155,0.84232 -0.0312,1.70165 -0.10784,5.82329 -0.22246,11.64642 -0.34108,17.4695 -0.0434,2.17574 -0.0851,4.35152 -0.125,6.52734 -0.0575,3.12014 -0.12127,6.24011 -0.18628,9.36011 -0.0167,0.97916 -0.0334,1.95831 -0.0506,2.96714 -0.0199,0.90086 -0.0399,1.80172 -0.0604,2.72988 -0.0156,0.7972 -0.0311,1.5944 -0.0471,2.41575 -0.15821,1.82863 -0.15821,1.82863 -1.15821,2.82863 -2.31,-0.33 -4.62,-0.66 -7,-1 -0.33,-16.83 -0.66,-33.66 -1,-51 -0.66,6.27 -1.32,12.54 -2,19 -0.33,0 -0.66,0 -1,0 -0.014,-0.92281 -0.014,-0.92281 -0.0283,-1.86426 -0.0538,-2.79605 -0.13742,-5.59044 -0.22168,-8.38574 -0.0142,-0.96808 -0.0284,-1.93617 -0.043,-2.93359 -0.19595,-5.68242 -0.47252,-7.86186 -4.70703,-11.81641 -0.0672,-6.53447 2.99717,-12.44726 5.5,-18.375 0.41636,-1.00933 0.83273,-2.01867 1.26171,-3.05859 3.08155,-7.40967 3.08155,-7.40967 4.23829,-8.56641 z"
       style="fill:#182e3d"
       id="path17" />
    <path
       d="m 364.14304,599.01593 c 1.9637,2.94556 1.95289,4.7778 1.5,8.25 -2,2 -2,2 -5.44214,2.17945 -1.4921,-0.0204 -2.98409,-0.0511 -4.47583,-0.0896 -1.65291,-0.0231 -3.30582,-0.0456 -4.95874,-0.0674 -1.30142,-0.0218 -1.30142,-0.0218 -2.62912,-0.0441 -20.36553,-0.31056 -39.74035,0.66448 -59.41214,6.34973 -2.9194,0.63642 -4.34139,0.73277 -7.08203,-0.32813 0.28515,-1.89087 0.28515,-1.89087 1,-4 2.68704,-1.36489 5.18014,-2.42865 8,-3.4375 1.2207,-0.45113 1.2207,-0.45113 2.46606,-0.91137 2.503,-0.90977 5.01478,-1.78719 7.53394,-2.65113 1.06226,-0.36641 1.06226,-0.36641 2.14599,-0.74023 16.24234,-5.47557 45.83948,-15.36994 61.35401,-4.50977 z"
       style="fill:#0a2841"
       id="path18" />
    <path
       d="m 310.64304,157.26593 c 12.54,0 25.08,0 38,0 0,6.27 0,12.54 0,19 -12.54,0 -25.08,0 -38,0 0,-6.27 0,-12.54 0,-19 z"
       style="fill:#7b89a0"
       id="path19" />
    <path
       d="m 329.64304,360.26593 c 4.03312,1.42012 6.57706,3.53369 9.4375,6.6875 2.30075,4.87761 2.55894,9.13635 0.9375,14.30469 -2.08496,4.33746 -4.91106,6.46969 -9.29297,8.34766 -3.25023,1.03056 -5.71064,1.15962 -9.08203,0.66015 -5.27839,-2.79444 -9.08865,-6.26593 -11,-12 -0.54031,-5.72719 0.34836,-8.55882 4,-13 4.91372,-4.32875 8.39582,-5.84791 15,-5 z"
       style="fill:#f7f9fb"
       id="path20" />
    <path
       d="m 307.9841,82.925356 c 1.56105,3.4e-4 1.56105,3.4e-4 3.15364,6.87e-4 1.11163,0.01548 2.22326,0.03097 3.36858,0.04692 1.72068,0.0064 1.72068,0.0064 3.47612,0.01286 3.65794,0.01677 7.31532,0.05442 10.9731,0.09261 2.48241,0.01505 4.96483,0.02874 7.44726,0.04102 6.08027,0.03305 12.16021,0.08323 18.24024,0.146485 -0.33,1.65 -0.66,3.3 -1,5 -0.57772,0.0036 -1.15544,0.0073 -1.75066,0.01105 -6.01883,0.04185 -12.03689,0.111205 -18.05525,0.196472 -2.24537,0.02821 -4.49083,0.04942 -6.73633,0.06348 -3.22993,0.02143 -6.45866,0.06809 -9.68823,0.119629 -1.00226,0.0012 -2.00453,0.0025 -3.03716,0.0037 -4.11264,0.08622 -7.09562,0.31501 -10.86567,2.035827 -2.85833,3.93496 -2.55648,7.546682 -2.50342,12.296394 -0.0104,0.94402 -0.0208,1.88805 -0.0315,2.86068 -0.0297,3.01296 -0.0263,6.02468 -0.0193,9.03775 -0.009,3.01987 -0.0248,6.03941 -0.0515,9.05918 -0.015,1.87854 -0.0187,3.75721 -0.0102,5.6358 -0.004,0.84783 -0.007,1.69566 -0.0113,2.56918 0.002,0.74739 0.004,1.49477 0.005,2.2648 -0.24482,1.84604 -0.24482,1.84604 -2.24482,3.84604 -2.625,-0.375 -2.625,-0.375 -5,-1 -0.10152,-6.45941 -0.17152,-12.91863 -0.21973,-19.37866 -0.0201,-2.19702 -0.0474,-4.39398 -0.082,-6.59082 -0.0486,-3.16005 -0.0712,-6.31938 -0.0889,-9.47974 -0.0206,-0.98039 -0.0413,-1.960773 -0.0626,-2.970869 -10e-4,-4.220663 0.0289,-6.843346 2.1651,-10.551834 4.06214,-3.600535 7.14115,-5.408711 12.62915,-5.368653 z"
       style="fill:#f4f7fa"
       id="path21" />
    <path
       d="m 566.64304,374.26593 c 1.40959,0.2301 1.40959,0.2301 2.84765,0.46485 4.8453,0.69218 9.70412,0.88309 14.58985,1.09765 0.92232,0.0432 1.84464,0.0864 2.79492,0.13086 2.25574,0.10519 4.51157,0.20733 6.76758,0.30664 -1.49505,5.23266 -3.85465,9.55376 -6.625,14.1875 -0.44006,0.74307 -0.88011,1.48613 -1.3335,2.25171 -3.67491,6.12331 -7.671,11.90844 -12.0415,17.56079 -2.67124,-2.67124 -2.65931,-4.65233 -3.28907,-8.36328 -0.21914,-1.27939 -0.43828,-2.55879 -0.66406,-3.87695 -0.11021,-0.66862 -0.22043,-1.33724 -0.33398,-2.02612 -0.33514,-2.02944 -0.6831,-4.05635 -1.03321,-6.08326 -1.82804,-10.83224 -1.82804,-10.83224 -1.67968,-15.65039 z"
       style="fill:#f6f9f9"
       id="path22" />
    <path
       d="m 180.64304,598.26593 c 0.495,0.99 0.495,0.99 1,2 0.99,0.495 0.99,0.495 2,1 -8.51866,12.42304 -21.15797,22.39758 -36,26 -3.2218,0.4518 -6.37389,0.57017 -9.625,0.5625 -1.30325,0.003 -1.30325,0.003 -2.63282,0.006 -7.36234,-0.17864 -12.75004,-2.20741 -19.375,-5.2207 -10.15416,-4.06402 -22.008116,-0.40965 -32.367184,1.65234 0,-3 0,-3 2,-5 9.034539,-4.74226 19.987364,-5.8777 29.859374,-3.23437 2.44083,0.97944 4.78018,2.07568 7.14063,3.23437 11.66734,4.99788 19.53357,5.21172 31.47656,0.61328 5.64822,-2.58616 10.55824,-5.90475 15.52344,-9.61328 0.96808,-0.71027 1.93617,-1.42054 2.93359,-2.15234 4.83928,-3.31045 4.83928,-3.31045 7.83594,-8.08203 0.0761,-0.58266 0.15211,-1.16531 0.23047,-1.76563 z"
       style="fill:#09303f"
       id="path23" />
    <path
       d="m 445.64304,181.26593 c 3.4395,0.61199 5.51564,1.92059 8.25,4.0625 0.7064,0.54785 1.41281,1.09571 2.14062,1.66016 0.79664,0.63228 0.79664,0.63228 1.60938,1.27734 -1.52325,4.94354 -4.44273,8.15211 -7.8125,11.9375 -1.04854,1.1963 -2.09673,2.39291 -3.14454,3.58985 -0.5074,0.57605 -1.01481,1.1521 -1.53759,1.7456 -2.21335,2.53928 -4.3603,5.12996 -6.50537,7.72705 -3.85659,-2.15078 -7.54319,-4.23455 -11,-7 1.34358,-3.83397 3.03629,-6.56764 5.625,-9.6875 0.70382,-0.85722 1.40765,-1.71445 2.13281,-2.59765 1.10988,-1.34385 1.10988,-1.34385 2.24219,-2.71485 1.5031,-1.87251 3.00325,-3.7474 4.5,-5.625 1.16666,-1.45833 2.33333,-2.91666 3.5,-4.375 z"
       style="fill:#7b899f"
       id="path24" />
    <path
       d="m 526.64304,445.26593 c 8.24823,23.16678 6.70344,49.47331 1,73 -0.33,-0.99 -0.66,-1.98 -1,-3 -0.66,0 -1.32,0 -2,0 -0.66,1.32 -1.32,2.64 -2,4 0.14437,-1.00933 0.28875,-2.01867 0.4375,-3.05859 2.90638,-21.8999 3.69399,-45.76398 -3.4375,-66.94141 0,-1.32 0,-2.64 0,-4 2.66664,-1.33332 4.1668,-0.67102 7,0 z"
       style="fill:#002e4f"
       id="path25" />
    <path
       d="m 211.62009,181.43512 c 2.55554,1.04954 3.39873,2.21231 4.96826,4.47144 0.77924,1.11181 0.77924,1.11181 1.57422,2.24609 0.5298,0.77988 1.05961,1.55977 1.60547,2.36328 0.53754,0.76442 1.07507,1.52883 1.6289,2.31641 2.5525,3.68552 4.85158,7.12954 6.2461,11.43359 -1.57174,1.2028 -3.15788,2.38682 -4.75,3.5625 -0.88172,0.66129 -1.76344,1.32258 -2.67188,2.00391 -2.57812,1.43359 -2.57812,1.43359 -4.53931,1.25293 -2.5882,-1.04012 -3.55704,-2.28059 -5.23803,-4.49512 -0.56912,-0.74572 -1.13824,-1.49144 -1.72461,-2.25976 -0.58201,-0.7844 -1.16403,-1.56879 -1.76367,-2.37696 -0.89042,-1.15919 -0.89042,-1.15919 -1.79883,-2.34179 -4.76363,-6.31711 -4.76363,-6.31711 -5.51367,-10.34571 1.57017,-1.3694 3.15665,-2.72013 4.75,-4.0625 1.32257,-1.13115 1.32257,-1.13115 2.67187,-2.28515 2.57813,-1.65235 2.57813,-1.65235 4.55518,-1.48316 z"
       style="fill:#7c8ba1"
       id="path26" />
    <path
       d="m 391.64304,303.26593 c -0.4531,4.72392 -2.2122,6.62138 -5.625,9.8125 -3.01408,2.89097 -5.94104,5.73739 -8.625,8.9375 -3.94807,4.62488 -8.30378,8.8293 -12.62256,13.10303 -3.67586,3.65223 -7.17894,7.37831 -10.5376,11.32666 -3.00268,3.43796 -6.13447,6.8336 -9.58984,9.82031 -0.66,0 -1.32,0 -2,0 -0.31641,-2.16797 -0.31641,-2.16797 0,-5 2.16015,-2.61328 2.16015,-2.61328 5.0625,-5.3125 4.79371,-4.55573 4.79371,-4.55573 9.25,-9.4375 3.44102,-4.03258 7.06036,-7.88568 10.6875,-11.75 5.78325,-6.16986 11.46105,-12.38659 16.8125,-18.9375 3.29509,-3.85997 3.29509,-3.85997 7.1875,-2.5625 z"
       style="fill:#e3ecf1"
       id="path27" />
    <path
       d="m 207.25241,298.83625 c 4.69702,0.59524 7.74954,2.71775 11.64063,5.30468 0.71929,0.4602 1.43859,0.92039 2.17968,1.39453 2.75706,1.78125 5.24287,3.40302 7.57032,5.73047 -0.1875,3 -0.1875,3 -1,6 -3,2 -3,2 -4.9646,1.74756 -2.02567,-0.74398 -3.75231,-1.59976 -5.60181,-2.70849 -0.65033,-0.3893 -1.30066,-0.7786 -1.9707,-1.17969 -0.66838,-0.40735 -1.33676,-0.81469 -2.02539,-1.23438 -0.67225,-0.39961 -1.3445,-0.79922 -2.03711,-1.21093 -6.01142,-3.62954 -6.01142,-3.62954 -8.40039,-6.41407 -0.3125,-2.5625 -0.3125,-2.5625 0,-5 2,-2 2,-2 4.60937,-2.42968 z"
       style="fill:#0b2e4d"
       id="path28" />
    <path
       d="m 269.64304,479.26593 c 1,1 1,1 1.37109,4.03907 -0.48213,5.14611 -2.46605,8.12447 -5.30859,12.33593 -0.46858,0.72317 -0.93715,1.44633 -1.41993,2.19141 -3.35513,5.14615 -3.35513,5.14615 -4.64257,6.43359 -2.9375,0.25 -2.9375,0.25 -6,0 -2,-3 -2,-3 -1.9336,-5.66797 1.23687,-4.41444 3.39051,-7.82102 5.8711,-11.64453 0.45568,-0.72767 0.91136,-1.45535 1.38086,-2.20508 4.49885,-7.06775 4.49885,-7.06775 10.68164,-5.48242 z"
       style="fill:#0d304d"
       id="path29" />
    <path
       d="m 226.64304,435.26593 c 2,2 2,2 2.02343,5.35547 -1.10648,3.94025 -2.09371,4.98717 -5.58593,7.00586 -0.59813,0.31389 -1.19625,0.62777 -1.8125,0.95117 -0.59039,0.33323 -1.18079,0.66645 -1.78907,1.00977 -1.6048,0.90541 -3.21996,1.79241 -4.83593,2.67773 -0.99,0.66 -1.98,1.32 -3,2 -3.0625,0.25 -3.0625,0.25 -6,0 -2,-2 -2,-2 -2.08985,-5.32031 1.31271,-4.43216 2.55266,-5.24419 6.41211,-7.44531 0.69803,-0.3661 1.39606,-0.73219 2.11524,-1.10938 0.69416,-0.38929 1.38832,-0.77859 2.10351,-1.17968 7.71379,-4.30121 7.71379,-4.30121 12.45899,-3.94532 z"
       style="fill:#0b2e4c"
       id="path30" />
    <path
       d="m 446.64304,299.26593 c 2,2 2,2 2.08984,4.79297 -1.5742,4.63233 -4.46039,6.05984 -8.52734,8.51953 -0.69416,0.44151 -1.38832,0.88301 -2.10352,1.33789 -4.72352,2.98593 -7.6621,4.83269 -13.45898,4.34961 -2,-3 -2,-3 -1.87891,-5.5 1.09111,-3.10359 2.15397,-3.81702 4.94141,-5.5 0.81211,-0.49758 1.62421,-0.99515 2.46093,-1.50781 0.81727,-0.49242 1.63453,-0.98484 2.47657,-1.49219 1.07121,-0.73863 1.07121,-0.73863 2.16406,-1.49218 4.01827,-2.74608 6.79135,-4.34858 11.83594,-3.50782 z"
       style="fill:#092d4c"
       id="path31" />
    <path
       d="m 256.47116,246.71515 c 3.17188,0.55078 3.17188,0.55078 5.65625,3.50781 0.77723,1.27196 1.53186,2.55796 2.26563,3.85547 0.38543,0.6426 0.77086,1.2852 1.16796,1.94727 1.04129,1.73847 2.06261,3.48886 3.08204,5.24023 0.99,1.485 0.99,1.485 2,3 0.33142,3.1817 0.50608,5.17429 -1.1875,7.9375 -1.8125,1.0625 -1.8125,1.0625 -4.16797,1.01953 -3.72232,-1.34707 -4.9393,-3.90104 -6.76953,-7.20703 -0.66258,-1.13953 -1.32516,-2.27906 -2.00782,-3.45312 -0.61617,-1.08797 -1.23234,-2.17594 -1.86718,-3.29688 -0.85272,-1.36318 -0.85272,-1.36318 -1.72266,-2.7539 -1.5124,-2.65943 -1.68457,-4.23259 -1.27734,-7.2461 2,-2 2,-2 4.82812,-2.55078 z"
       style="fill:#0a2d4e"
       id="path32" />
    <path
       d="m 394.58054,247.07843 c 3.0625,0.1875 3.0625,0.1875 5.0625,2.1875 -0.15459,6.13695 -2.50289,10.27909 -5.75,15.375 -0.43055,0.72317 -0.8611,1.44633 -1.30469,2.19141 -3.2341,5.16099 -3.2341,5.16099 -6.65625,6.47266 -2.28906,-0.0391 -2.28906,-0.0391 -4.16406,-1.03907 -1.79945,-3.19901 -0.90124,-5.47489 -0.125,-9 1.29022,-2.76507 2.85976,-5.30546 4.5,-7.875 0.41636,-0.67547 0.83273,-1.35093 1.26171,-2.04687 3.75212,-6.0471 3.75212,-6.0471 7.17579,-6.26563 z"
       style="fill:#0a2e4d"
       id="path33" />
    <path
       d="m 386.06882,478.41437 c 3.335,1.10323 3.9174,2.30152 5.57422,5.35156 0.49629,0.90106 0.99257,1.80211 1.5039,2.73047 0.74057,1.37092 0.74057,1.37092 1.4961,2.76953 0.50402,0.82114 1.00804,1.64227 1.52734,2.48828 0.46535,0.767 0.9307,1.53399 1.41016,2.32422 0.42152,0.68707 0.84304,1.37414 1.27734,2.08203 1.01606,2.72468 0.61105,4.35714 -0.21484,7.10547 -1,1 -1,1 -3.76563,1.48438 -3.23437,-0.48438 -3.23437,-0.48438 -5.71875,-3.40625 -0.77727,-1.26273 -1.53189,-2.53962 -2.26562,-3.82813 -0.38543,-0.63422 -0.77086,-1.26843 -1.16797,-1.92187 -5.70432,-9.4743 -5.70432,-9.4743 -5.08203,-14.32813 1.64851,-2.60292 2.32365,-3.04138 5.42578,-2.85156 z"
       style="fill:#0b2d4c"
       id="path34" />
    <path
       d="m 431.64304,436.26593 c 2.54661,1.29388 4.88656,2.83768 7.25,4.4375 0.6239,0.40799 1.24781,0.81598 1.89062,1.23633 2.48167,1.63929 4.75141,3.2182 6.85938,5.32617 0.25,2.5 0.25,2.5 0,5 -2,2 -2,2 -4.60547,2.41407 -4.66816,-0.56942 -7.78467,-2.54788 -11.70703,-5.03907 -0.72768,-0.42668 -1.45536,-0.85336 -2.20508,-1.29297 -5.21318,-3.25519 -5.21318,-3.25519 -6.5293,-7.29687 0.0469,-2.78516 0.0469,-2.78516 1.10938,-4.72266 2.95233,-1.61902 4.70464,-0.88113 7.9375,-0.0625 z"
       style="fill:#0a2b4a"
       id="path35" />
    <path
       d="m 323.64304,298.26593 c 1.65,0 3.3,0 5,0 0,16.83 0,33.66 0,51 -1.98,0.495 -1.98,0.495 -4,1 -1,-1 -1,-1 -1.12026,-3.05641 0.002,-0.90379 0.004,-1.80758 0.007,-2.73875 8e-5,-1.02099 1.5e-4,-2.04197 2.3e-4,-3.09389 0.005,-1.1104 0.0103,-2.2208 0.0156,-3.36485 10e-4,-1.13059 0.003,-2.26117 0.004,-3.42601 0.006,-3.62756 0.0182,-7.25505 0.0309,-10.88259 0.005,-2.45247 0.01,-4.90494 0.0137,-7.35742 0.0111,-6.02671 0.0278,-12.05339 0.0488,-18.08008 z"
       style="fill:#df7d26"
       id="path36" />
    <path
       d="m 328.64304,227.26593 c 2.56988,2.56989 2.25706,3.5891 2.26562,7.15625 0.003,1.02223 0.005,2.04446 0.008,3.09766 -0.008,1.07121 -0.0155,2.14242 -0.0234,3.24609 0.008,1.07121 0.0155,2.14242 0.0234,3.2461 -0.003,1.02222 -0.005,2.04445 -0.008,3.09765 -0.002,0.94037 -0.005,1.88074 -0.007,2.84961 -0.25879,2.30664 -0.25879,2.30664 -2.25879,4.30664 -3,0.3125 -3,0.3125 -6,0 -2.91494,-4.3724 -2.32971,-8.35802 -2.3125,-13.5 -0.0161,-0.96293 -0.0322,-1.92586 -0.0488,-2.91797 -6.5e-4,-0.92425 -10e-4,-1.84851 -0.002,-2.80078 -0.003,-0.84498 -0.006,-1.68996 -0.009,-2.56054 0.81561,-4.86476 3.82821,-5.80329 8.37232,-5.22071 z"
       style="fill:#0f314f"
       id="path37" />
    <path
       d="m 326.76804,495.51593 c 2.875,0.75 2.875,0.75 3.875,1.75 0.25208,3.80588 0.18522,7.62426 0.1875,11.4375 0.0122,1.07573 0.0245,2.15145 0.0371,3.25977 0.003,1.54011 0.003,1.54011 0.006,3.11133 0.004,0.94673 0.008,1.89347 0.0125,2.86889 -0.24292,2.32251 -0.24292,2.32251 -2.24292,4.32251 -3,0.3125 -3,0.3125 -6,0 -2.91494,-4.3724 -2.32971,-8.35802 -2.3125,-13.5 -0.0161,-0.96293 -0.0322,-1.92586 -0.0488,-2.91797 -6.5e-4,-0.92425 -0.001,-1.84851 -0.002,-2.80078 -0.003,-0.84498 -0.006,-1.68996 -0.009,-2.56054 0.37232,-2.22071 0.37232,-2.22071 1.69971,-4.03516 1.67261,-1.18555 1.67261,-1.18555 4.79761,-0.93555 z"
       style="fill:#0d2f4d"
       id="path38" />
    <path
       d="m 190.58054,372.00031 c 1.46566,-0.004 1.46566,-0.004 2.96093,-0.008 1.02352,0.008 2.04703,0.0155 3.10157,0.0234 1.02351,-0.008 2.04703,-0.0155 3.10156,-0.0234 0.97711,0.003 1.95422,0.005 2.96094,0.008 0.89847,0.002 1.79695,0.005 2.72265,0.007 2.21485,0.25879 2.21485,0.25879 4.21485,2.25879 -0.45455,5.45455 -0.45455,5.45455 -3,8 -2.12305,0.25879 -2.12305,0.25879 -4.71875,0.26563 -0.932,0.003 -1.86399,0.005 -2.82422,0.008 -0.97582,-0.008 -1.95164,-0.0155 -2.95703,-0.0234 -0.97582,0.008 -1.95164,0.0155 -2.95704,0.0234 -0.93199,-0.003 -1.86398,-0.005 -2.82421,-0.008 -0.85659,-0.002 -1.71317,-0.005 -2.59571,-0.007 -2.12304,-0.25879 -2.12304,-0.25879 -4.12304,-2.25879 -0.25,-3 -0.25,-3 0,-6 2.53054,-2.53054 3.43548,-2.25683 6.9375,-2.26562 z"
       style="fill:#092c4a"
       id="path39" />
    <path
       d="m 449.36179,372.00031 c 0.93199,-0.003 1.86398,-0.005 2.82421,-0.008 0.97583,0.008 1.95165,0.0155 2.95704,0.0234 0.97582,-0.008 1.95164,-0.0155 2.95703,-0.0234 0.93199,0.003 1.86398,0.005 2.82422,0.008 0.85658,0.002 1.71316,0.005 2.5957,0.007 2.12305,0.25879 2.12305,0.25879 4.12305,2.25879 0.25,3 0.25,3 0,6 -2.49058,2.49058 -3.28473,2.25658 -6.71875,2.26563 -0.932,0.003 -1.86399,0.005 -2.82422,0.008 -0.97582,-0.008 -1.95164,-0.0155 -2.95703,-0.0234 -0.97582,0.008 -1.95164,0.0155 -2.95704,0.0234 -0.93199,-0.003 -1.86398,-0.005 -2.82421,-0.008 -0.85659,-0.002 -1.71317,-0.005 -2.59571,-0.007 -2.12304,-0.25879 -2.12304,-0.25879 -4.12304,-2.25879 -0.25,-3 -0.25,-3 0,-6 2.49057,-2.49057 3.28472,-2.25658 6.71875,-2.26562 z"
       style="fill:#062b49"
       id="path40" />
    <path
       d="m 440.64304,533.26593 c 0.99,0.33 1.98,0.66 3,1 -0.40993,0.51949 -0.81985,1.03899 -1.24219,1.57422 -2.89562,3.74768 -5.01656,7.01461 -6.75781,11.42578 -3.63217,5.54011 -3.63217,5.54011 -7.00269,6.67334 -2.27679,0.36161 -4.50867,0.56664 -6.80981,0.70166 -0.78827,0.0683 -1.57653,0.13664 -2.38868,0.20703 -1.93101,0.16385 -3.86482,0.2943 -5.79882,0.41797 0.31357,-2.92668 0.9202,-3.92496 3.09765,-5.97265 3.96465,-2.76939 8.09673,-5.17567 12.28711,-7.58399 3.22828,-1.89108 6.10598,-3.79338 8.90039,-6.29101 0.8959,-0.71028 1.7918,-1.42055 2.71485,-2.15235 z"
       style="fill:#663a1f"
       id="path41" />
    <path
       d="m 475.64304,128.26593 c 0.21592,2.80616 0.28839,4.50959 -1.15821,6.96949 -0.5356,0.62237 -1.07121,1.24475 -1.62304,1.88598 -0.59152,0.70069 -1.18304,1.40137 -1.79248,2.12329 -0.63567,0.72889 -1.27134,1.45777 -1.92627,2.20874 -1.28436,1.5126 -2.56821,3.02562 -3.85157,4.53907 -0.62551,0.72993 -1.25103,1.45986 -1.8955,2.21191 -2.26645,2.66544 -4.45285,5.38357 -6.62793,8.12402 -0.92426,1.16209 -0.92426,1.16209 -1.86719,2.34766 -0.41508,0.52465 -0.83016,1.0493 -1.25781,1.58984 -1.32,-0.33 -2.64,-0.66 -4,-1 0.3849,-5.30762 3.3413,-8.3446 6.625,-12.25 1.09563,-1.33155 2.19068,-2.66358 3.28515,-3.99609 0.53126,-0.64179 1.06251,-1.28359 1.60987,-1.94483 2.44668,-2.99074 4.7624,-6.07949 7.07763,-9.17236 2.32238,-2.71052 3.82068,-3.63672 7.40235,-3.63672 z"
       style="fill:#f6f7fa"
       id="path42" />
    <path
       d="m 352.64304,93.265933 c 2.33944,0.2873 4.67391,0.619367 7,1 0.087,3.604014 0.14039,7.207757 0.1875,10.812497 0.0377,1.53624 0.0377,1.53624 0.0762,3.10352 0.0145,1.47436 0.0145,1.47436 0.0293,2.97851 0.0236,1.35896 0.0236,1.35896 0.0476,2.74537 -0.34057,2.3601 -0.34057,2.3601 -1.72607,4.19482 -1.6145,1.16528 -1.6145,1.16528 -3.7395,0.91528 -1.875,-0.75 -1.875,-0.75 -2.875,-1.75 -0.0993,-1.69558 -0.1308,-3.39525 -0.13282,-5.09375 -0.002,-1.54494 -0.002,-1.54494 -0.004,-3.12109 0.004,-1.0841 0.008,-2.1682 0.0117,-3.28516 -0.004,-1.0841 -0.008,-2.1682 -0.0117,-3.28515 10e-4,-1.02997 0.003,-2.05993 0.004,-3.121097 0.001,-0.951973 0.002,-1.903946 0.003,-2.884766 0.1294,-2.208984 0.1294,-2.208984 1.1294,-3.208984 z"
       style="fill:#082d4c"
       id="path43" />
    <path
       d="m 340.64304,93.265933 c 4.55555,0.555555 4.55555,0.555555 6,2 0.25146,3.451147 0.18522,6.915767 0.1875,10.374997 0.0122,0.97196 0.0245,1.94391 0.0371,2.94532 0.003,1.39992 0.003,1.39992 0.006,2.82812 0.004,0.85771 0.008,1.71542 0.0125,2.59912 -0.24292,2.25244 -0.24292,2.25244 -2.24292,5.25244 -4.875,-0.875 -4.875,-0.875 -6,-2 -0.25157,-3.63899 -0.18523,-7.29083 -0.1875,-10.9375 -0.0122,-1.02802 -0.0245,-2.05605 -0.0371,-3.11523 -0.002,-0.98162 -0.004,-1.96324 -0.006,-2.97461 -0.004,-0.904842 -0.008,-1.809684 -0.0125,-2.741944 0.24292,-2.230713 0.24292,-2.230713 2.24292,-4.230713 z"
       style="fill:#082e4d"
       id="path44" />
    <path
       d="m 327.64304,93.265933 c 4.55555,0.555555 4.55555,0.555555 6,2 0.25156,3.638991 0.18522,7.290837 0.1875,10.937497 0.0122,1.02803 0.0245,2.05606 0.0371,3.11524 0.003,1.47243 0.003,1.47243 0.006,2.97461 0.004,0.90484 0.008,1.80968 0.0125,2.74194 -0.24292,2.23071 -0.24292,2.23071 -2.24292,4.23071 -2.5625,-0.25 -2.5625,-0.25 -5,-1 -1.8852,-3.77039 -1.18476,-8.35154 -1.1875,-12.5 -0.0122,-0.97582 -0.0245,-1.95164 -0.0371,-2.95703 -0.002,-0.93199 -0.004,-1.86398 -0.006,-2.824217 -0.004,-0.856582 -0.008,-1.713164 -0.0125,-2.595704 0.24292,-2.123046 0.24292,-2.123046 2.24292,-4.123046 z"
       style="fill:#0b304d"
       id="path45" />
    <path
       d="m 189.64304,128.26593 c -2.27827,9.39787 -14.66311,15.59166 -22,21 -1.04414,0.87399 -1.04414,0.87399 -2.10938,1.76563 -1.89062,1.23437 -1.89062,1.23437 -5.89062,1.23437 0.0412,-2.76904 0.53011,-4.49835 2.4375,-6.53467 1.97591,-1.70014 3.99753,-3.31199 6.0625,-4.90283 1.09006,-0.85888 1.09006,-0.85888 2.20214,-1.7351 13.85536,-10.8274 13.85536,-10.8274 19.29786,-10.8274 z"
       style="fill:#f2f4f8"
       id="path46" />
    <path
       d="m 300.64304,93.265933 c 1.99954,-0.04254 4.00041,-0.04081 6,0 1,1 1,1 1.11352,3.31665 -0.005,1.000232 -0.0105,2.000464 -0.0159,3.031006 -0.005,1.619381 -0.005,1.619381 -0.01,3.271481 -0.008,1.13631 -0.0168,2.27262 -0.0254,3.44336 -0.005,1.14018 -0.009,2.28035 -0.0137,3.45508 -0.0118,2.82753 -0.0283,5.65495 -0.0488,8.48242 -2.375,0.625 -2.375,0.625 -5,1 -2,-2 -2,-2 -2.22705,-4.43017 0.0105,-0.995 0.0209,-1.98999 0.0317,-3.01514 0.006,-1.07637 0.0129,-2.15273 0.0195,-3.26172 0.0168,-1.12793 0.0335,-2.25586 0.0508,-3.41797 0.009,-1.13566 0.018,-2.27133 0.0273,-3.4414 0.0236,-2.81141 0.0566,-5.6224 0.0977,-8.433597 z"
       style="fill:#052948"
       id="path47" />
    <path
       d="m 314.64304,93.265933 c 4.875,0.875 4.875,0.875 6,2 0.25156,3.638991 0.18522,7.290837 0.1875,10.937497 0.0122,1.02803 0.0245,2.05606 0.0371,3.11524 0.002,0.98162 0.004,1.96324 0.006,2.97461 0.004,0.90484 0.008,1.80968 0.0125,2.74194 -0.24292,2.23071 -0.24292,2.23071 -2.24292,4.23071 -3.53572,-0.53571 -3.53572,-0.53571 -5,-2 -0.0992,-1.61083 -0.1308,-3.22595 -0.13282,-4.83984 -10e-4,-0.98033 -0.003,-1.96067 -0.004,-2.9707 0.004,-1.0319 0.008,-2.06379 0.0117,-3.12696 -0.004,-1.02802 -0.008,-2.05605 -0.0117,-3.11523 0.001,-0.98162 0.003,-1.96324 0.004,-2.97461 10e-4,-0.904842 0.002,-1.809684 0.003,-2.741944 0.1294,-2.230713 0.1294,-2.230713 1.1294,-4.230713 z"
       style="fill:#052c4c"
       id="path48" />
    <path
       d="m 570.64304,425.26593 c 5.61,0.66 11.22,1.32 17,2 -1.62246,4.86738 -2.7357,7.41559 -5.625,11.375 -0.63164,0.87399 -1.26329,1.74797 -1.91407,2.64844 -0.48211,0.65227 -0.96422,1.30453 -1.46093,1.97656 -0.66,-0.33 -1.32,-0.66 -2,-1 -0.46137,-1.97726 -0.92043,-3.95514 -1.35938,-5.9375 -0.89576,-2.88392 -2.7272,-4.76639 -4.64062,-7.0625 0,-1.32 0,-2.64 0,-4 z"
       style="fill:#eff5f5"
       id="path49" />
    <path
       d="m 325.64304,275.26593 c 2.72178,2.37084 3.88769,4.65338 5.1875,8 0.34418,0.86625 0.68836,1.7325 1.04296,2.625 0.76954,2.375 0.76954,2.375 0.76954,5.375 -4.29,0 -8.58,0 -13,0 0.83416,-4.17081 1.78767,-7.03531 3.5625,-10.8125 0.45504,-0.97582 0.91007,-1.95164 1.3789,-2.95703 0.34934,-0.73605 0.69867,-1.47211 1.0586,-2.23047 z"
       style="fill:#db7c20"
       id="path50" />
    <path
       d="m 322.64304,297.26593 c 0.074,5.23272 0.12854,10.46513 0.16479,15.69824 0.0151,1.78098 0.0356,3.56192 0.0615,5.34278 0.0363,2.55673 0.0534,5.11298 0.0666,7.66992 0.0155,0.79901 0.031,1.59801 0.0469,2.42123 6.8e-4,2.2443 6.8e-4,2.2443 -0.33989,5.86783 -0.99,0.66 -1.98,1.32 -3,2 -1.0676,-12.88333 -1.03519,-25.2034 1,-38 1,-1 1,-1 2,-1 z"
       style="fill:#022841"
       id="path51" />
    <path
       d="m 117.64304,545.26593 c 5.61,0 11.22,0 17,0 0,1.32 0,2.64 0,4 -3.75226,1.65684 -7.26353,2.50208 -11.3125,3.125 -1.06864,0.16758 -2.13727,0.33516 -3.23829,0.50782 -0.80824,0.12117 -1.61648,0.24234 -2.44921,0.36718 0,-2.64 0,-5.28 0,-8 z"
       style="fill:#533120"
       id="path52" />
    <path
       d="m 524.64304,470.26593 c 0.66,0.33 1.32,0.66 2,1 0,11.55 0,23.1 0,35 0.66,0 1.32,0 2,0 0.33,-1.32 0.66,-2.64 1,-4 -0.4987,5.36892 -1.02228,10.69235 -2,16 -0.495,-1.485 -0.495,-1.485 -1,-3 -0.66,0 -1.32,0 -2,0 -0.66,1.32 -1.32,2.64 -2,4 0.14437,-0.93972 0.28875,-1.87945 0.4375,-2.84765 2.12059,-15.33557 1.75395,-30.70901 1.5625,-46.15235 z"
       style="fill:#024063"
       id="path53" />
    <path
       d="m 199.64304,189.26593 c 3.20938,0.26927 4.02457,1.02827 6.18359,3.51172 0.74379,1.04801 1.48758,2.09602 2.25391,3.17578 2.43579,3.39349 4.84753,6.74837 7.625,9.875 1.9375,2.4375 1.9375,2.4375 1.9375,5.4375 -3.66503,-0.55027 -4.98508,-1.75887 -7.19922,-4.67578 -0.56912,-0.74572 -1.13824,-1.49144 -1.72461,-2.25976 -0.58201,-0.7844 -1.16403,-1.56879 -1.76367,-2.37696 -0.89042,-1.15919 -0.89042,-1.15919 -1.79883,-2.34179 -4.76363,-6.31711 -4.76363,-6.31711 -5.51367,-10.34571 z"
       style="fill:#e7ecf2"
       id="path54" />
    <path
       d="m 365.64304,332.26593 c -1.34308,2.96355 -2.85036,5.13558 -5.08204,7.4961 -0.60263,0.6413 -1.20527,1.28261 -1.82617,1.94336 -0.62842,0.65935 -1.25683,1.31871 -1.90429,1.99804 -0.61682,0.65549 -1.23364,1.31098 -1.86914,1.98633 -1.76321,1.86814 -3.53892,3.72351 -5.31836,5.57617 -0.73936,0.78528 -0.73936,0.78528 -1.49366,1.58643 -1.12955,1.17681 -2.31293,2.30158 -3.50634,3.41357 -0.66,0 -1.32,0 -2,0 -0.375,-2.25 -0.375,-2.25 0,-5 1.38697,-0.9218 2.77862,-1.8372 4.19091,-2.71972 3.59376,-2.54328 6.51621,-5.86784 9.55909,-9.03028 1.32347,-1.37428 2.65138,-2.74432 3.98437,-4.10937 0.57976,-0.60296 1.15951,-1.20592 1.75684,-1.82715 1.50879,-1.31348 1.50879,-1.31348 3.50879,-1.31348 z"
       style="fill:#edf4f8"
       id="path55" />
    <path
       d="m 447.64304,182.26593 c -2.89582,6.27428 -7.13378,11.57094 -11.5625,16.8125 -0.48147,0.58459 -0.96293,1.16918 -1.45899,1.77149 -3.6192,4.29624 -3.6192,4.29624 -6.97851,5.41601 2.15937,-6.15094 13.0614,-24 20,-24 z"
       style="fill:#d7dbe8"
       id="path56" />
    <path
       d="m 128.64304,564.26593 c 0,0.66 0,1.32 0,2 -2.64,0.33 -5.28,0.66 -8,1 0,0.66 0,1.32 0,2 1.14662,0.0213 1.14662,0.0213 2.3164,0.043 6.67249,0.29709 12.62746,1.28232 18.9336,3.39453 0.65556,0.21745 1.31113,0.4349 1.98657,0.65894 4.62796,1.63264 4.62796,1.63264 5.76343,3.90356 -0.88817,-0.24234 -1.77633,-0.48468 -2.69141,-0.73437 -11.97522,-3.17254 -24.08936,-5.26764 -36.30859,-7.26563 2.94414,-1.96276 5.05898,-2.71734 8.4375,-3.625 0.94746,-0.26039 1.89492,-0.52078 2.87109,-0.78906 2.69141,-0.58594 2.69141,-0.58594 6.69141,-0.58594 z"
       style="fill:#b8926b"
       id="path57" />
    <path
       d="m 39.643036,529.26593 c 0.33,0.66 0.66,1.32 1,2 -4.760083,5.5931 -9.745957,10.86878 -15,16 7.189323,2.63024 14.363473,3.1666 21.9375,3.5625 0.779238,0.0432 1.558477,0.0864 2.361328,0.13086 1.900243,0.10492 3.800689,0.20617 5.701172,0.30664 0,0.33 0,0.66 0,1 -12.09777,0.33769 -23.264377,0.31359 -35,-3 2.50376,-2.50824 5.011712,-5.01155 7.535156,-7.5 0.834024,-0.825 1.668047,-1.65 2.527344,-2.5 0.836602,-0.825 1.673203,-1.65 2.535156,-2.5 2.301856,-2.39542 4.371369,-4.87333 6.402344,-7.5 z"
       style="fill:#236b52"
       id="path58" />
    <path
       d="m 322.64304,265.26593 c 2,3 2,3 1.82812,5.44532 -0.19078,0.88429 -0.38156,1.76859 -0.57812,2.67968 -0.18047,0.88946 -0.36094,1.77891 -0.54688,2.69532 -0.23203,0.71929 -0.46406,1.43859 -0.70312,2.17968 -0.99,0.495 -0.99,0.495 -2,1 -0.0825,0.9075 -0.165,1.815 -0.25,2.75 -1.04509,4.52872 -3.04638,5.57079 -6.75,8.25 2.31139,-8.61703 5.60795,-16.76688 9,-25 z"
       style="fill:#1c4160"
       id="path59" />
    <path
       d="m 646.64304,591.26593 c 1.5,1.375 1.5,1.375 3,3 0,0.66 0,1.32 0,2 -17.16,0 -34.32,0 -52,0 -0.33,-0.66 -0.66,-1.32 -1,-2 16.17,0 32.34,0 49,0 0.33,-0.99 0.66,-1.98 1,-3 z"
       style="fill:#0a92c2"
       id="path60" />
    <path
       d="m 322.64304,275.26593 c 0.99,0.66 1.98,1.32 3,2 -0.26555,0.59168 -0.5311,1.18336 -0.80469,1.79297 -1.80668,4.04195 -3.59658,8.07698 -5.19531,12.20703 -0.66,0 -1.32,0 -2,0 0,0.66 0,1.32 0,2 -1.32,-0.33 -2.64,-0.66 -4,-1 1.11676,-2.51271 2.27014,-4.31925 4.0625,-6.4375 2.00457,-2.65121 2.56526,-4.30544 2.9375,-7.5625 0.66,0 1.32,0 2,0 0,-0.99 0,-1.98 0,-3 z"
       style="fill:#122d30"
       id="path61" />
    <path
       d="m 297.64304,17.265933 c 20.295,0.495 20.295,0.495 41,1 0,0.33 0,0.66 0,1 -5.51741,0.167412 -11.03495,0.327992 -16.55274,0.482177 -1.87798,0.05345 -3.75591,0.10878 -5.63379,0.166016 -2.69552,0.08183 -5.39116,0.156943 -8.08691,0.230713 -0.84276,0.02703 -1.68551,0.05407 -2.5538,0.08192 -5.94502,0.153041 -5.94502,0.153041 -8.17276,-0.96083 0,-0.66 0,-1.32 0,-2 z"
       style="fill:#8898af"
       id="path62" />
    <path
       d="m 40.643036,443.26593 c 0,3 0,3 -1.3125,4.60547 -0.556875,0.52207 -1.11375,1.04414 -1.6875,1.58203 -0.556875,0.52981 -1.11375,1.05961 -1.6875,1.60547 -0.433125,0.39832 -0.86625,0.79664 -1.3125,1.20703 8.279506,2.21773 16.4792,2.60271 25,3 0,0.33 0,0.66 0,1 -3.145752,0.059 -6.291359,0.0939 -9.4375,0.125 -1.317744,0.0251 -1.317744,0.0251 -2.662109,0.0508 -5.947988,0.0439 -11.138567,-0.68696 -16.900391,-2.17578 1.589485,-3.40162 3.233586,-5.32494 6.125,-7.75 0.724453,-0.61359 1.448906,-1.22718 2.195313,-1.85937 0.831445,-0.68836 0.831445,-0.68836 1.679687,-1.39063 z"
       style="fill:#1e6651"
       id="path63" />
    <path
       d="m 128.64304,624.26593 c 2.91691,-0.054 5.83282,-0.0937 8.75,-0.125 0.825,-0.0168 1.65,-0.0335 2.5,-0.0508 0.79921,-0.006 1.59843,-0.0129 2.42187,-0.0195 0.73316,-0.0105 1.46631,-0.0209 2.22168,-0.0317 2.40541,0.25928 4.01896,1.03479 6.10645,2.22705 -3.70447,1.23482 -7.1443,1.14558 -11,1.125 -0.72446,0.004 -1.44891,0.008 -2.19532,0.0117 -3.19751,-0.006 -5.75051,-0.11866 -8.80468,-1.13672 0,-0.66 0,-1.32 0,-2 z"
       style="fill:#031a41"
       id="path64" />
    <path
       d="m 435.64304,544.26593 c 0,3.53422 -1.03317,5.05659 -3.3335,7.68067 -3.10987,2.46202 -6.63563,2.46882 -10.479,2.69433 -1.1824,0.10248 -1.1824,0.10248 -2.38868,0.20703 -1.93101,0.16385 -3.86482,0.2943 -5.79882,0.41797 0.69378,-3.26011 1.45894,-4.79038 4,-7 0.66,0.33 1.32,0.66 2,1 -0.99,1.32 -1.98,2.64 -3,4 1.77131,-0.30975 3.54203,-0.6229 5.3125,-0.9375 0.98613,-0.17402 1.97226,-0.34804 2.98828,-0.52734 2.78111,-0.49263 2.78111,-0.49263 5.69922,-1.53516 0,-0.66 0,-1.32 0,-2 1.62626,-1.38232 3.2925,-2.71937 5,-4 z"
       style="fill:#363133"
       id="path65" />
    <path
       d="m 619.64304,337.26593 c 2.80634,2.80635 3.18428,6.06256 4.0625,9.8125 0.17337,0.71221 0.34675,1.42442 0.52539,2.15821 0.88423,3.66228 1.70668,7.32764 2.41211,11.02929 -2,-1 -2,-1 -3.07032,-3.9414 -0.34804,-1.19496 -0.69609,-2.38993 -1.05468,-3.6211 -0.35321,-1.19754 -0.70641,-2.39508 -1.07032,-3.6289 -0.26554,-0.92684 -0.53109,-1.85368 -0.80468,-2.8086 -2.12365,-0.22609 -2.12365,-0.22609 -3.625,1.5 -0.45375,0.495 -0.9075,0.99 -1.375,1.5 0.4769,-1.62566 0.95659,-3.25051 1.4375,-4.875 0.26683,-0.90492 0.53367,-1.80984 0.80859,-2.74218 0.75391,-2.38282 0.75391,-2.38282 1.75391,-4.38282 z"
       style="fill:#236753"
       id="path66" />
    <path
       d="m 311.64304,158.26593 c 0.99,0 1.98,0 3,0 0,5.61 0,11.22 0,17 -0.99,0 -1.98,0 -3,0 0,-5.61 0,-11.22 0,-17 z"
       style="fill:#fbfcfe"
       id="path67" />
    <path
       d="m 55.643036,370.26593 c 0,3 0,3 -2.5,5.6875 -0.825,0.76313 -1.65,1.52625 -2.5,2.3125 6.93,0.495 6.93,0.495 14,1 0,0.33 0,0.66 0,1 -4.156264,1.00927 -8.043651,1.1024 -12.3125,1.0625 -1.254258,-0.009 -2.508516,-0.018 -3.800781,-0.0273 -0.952617,-0.0116 -1.905235,-0.0232 -2.886719,-0.0352 0,-0.66 0,-1.32 0,-2 1.679688,-1.65625 1.679688,-1.65625 3.875,-3.5 2.115355,-1.78933 4.165191,-3.54019 6.125,-5.5 z"
       style="fill:#276c55"
       id="path68" />
    <path
       d="m 91.643036,282.26593 c 0.33,0.66 0.66,1.32 1,2 -0.68707,0.89203 -1.374141,1.78407 -2.082031,2.70313 -0.910169,1.18228 -1.820325,2.36457 -2.730469,3.54687 -0.451816,0.58653 -0.903633,1.17305 -1.369141,1.77735 -2.291467,2.97723 -4.57367,5.95985 -6.818359,8.97265 0.66,0.66 1.32,1.32 2,2 -2.31,0 -4.62,0 -7,0 0.763125,-0.86625 1.52625,-1.7325 2.3125,-2.625 5.110744,-5.94816 9.867479,-12.1913 14.6875,-18.375 z"
       style="fill:#226a54"
       id="path69" />
    <path
       d="m 331.64304,272.26593 c 1.79068,2.68603 2.66055,4.66266 3.625,7.6875 0.26039,0.80824 0.52078,1.61649 0.78906,2.44922 0.19336,0.61488 0.38672,1.22977 0.58594,1.86328 -1.98,0.99 -1.98,0.99 -4,2 0,-0.66 0,-1.32 0,-2 -0.66,0 -1.32,0 -2,0 -0.14286,-8.57143 -0.14286,-8.57143 1,-12 z"
       style="fill:#123353"
       id="path70" />
    <path
       d="m 221.64304,541.26593 c 3.465,1.98 3.465,1.98 7,4 0,0.33 0,0.66 0,1 -5.50433,0.17544 -10.53663,-0.47258 -15.9375,-1.5 -1.16886,-0.21463 -1.16886,-0.21463 -2.36133,-0.43359 -1.90142,-0.34995 -3.80145,-0.7074 -5.70117,-1.06641 0,-0.33 0,-0.66 0,-1 1.89575,-0.0272 3.79162,-0.0465 5.6875,-0.0625 1.05574,-0.0116 2.11148,-0.0232 3.19921,-0.0352 2.83739,0.089 5.35718,0.44825 8.11329,1.09765 0,-0.66 0,-1.32 0,-2 z"
       style="fill:#236a51"
       id="path71" />
    <path
       d="m 89.643036,386.26593 c -1.119699,1.00594 -2.245941,2.00459 -3.375,3 -0.939726,0.83532 -0.939726,0.83532 -1.898437,1.6875 -1.726563,1.3125 -1.726563,1.3125 -3.726563,1.3125 -0.2475,0.70125 -0.495,1.4025 -0.75,2.125 -3.472222,7.98611 -3.472222,7.98611 -7.25,9.875 1.515081,-4.38056 3.853008,-7.9867 6.5,-11.75 0.403477,-0.5891 0.806953,-1.1782 1.222656,-1.78515 4.176,-5.99525 4.176,-5.99525 9.277344,-4.46485 z"
       style="fill:#256e50"
       id="path72" />
    <path
       d="m 579.64304,354.26593 c 4.13937,3.30016 7.58662,6.17325 10,11 -6.4063,0.20853 -11.92973,0.15832 -18,-2 0,-0.33 0,-0.66 0,-1 6.93,0.495 6.93,0.495 14,1 -0.99,-1.11375 -1.98,-2.2275 -3,-3.375 -3,-3.375 -3,-3.375 -3,-5.625 z"
       style="fill:#276d52"
       id="path73" />
    <path
       d="m 88.643036,460.26593 c -12.76263,5.20101 -12.76263,5.20101 -17.125,5.625 -3.170993,0.41361 -3.899833,0.98401 -5.875,3.375 -0.66,0 -1.32,0 -2,0 0.33,-1.32 0.66,-2.64 1,-4 3.433452,-1.0348 6.87229,-2.05041 10.3125,-3.0625 0.976465,-0.29455 1.95293,-0.5891 2.958984,-0.89258 0.937793,-0.27392 1.875586,-0.54785 2.841797,-0.83007 0.864075,-0.25661 1.72815,-0.51321 2.618409,-0.77759 2.26831,-0.43726 2.26831,-0.43726 5.26831,0.56274 z"
       style="fill:#277252"
       id="path74" />
    <path
       d="m 527.64304,159.26593 c 0.66,0 1.32,0 2,0 1.60355,3.50777 2.22036,6.14355 2,10 -0.66,-0.99 -1.32,-1.98 -2,-3 -0.66,0 -1.32,0 -2,0 -0.26813,0.78375 -0.53625,1.5675 -0.8125,2.375 -1.1875,2.625 -1.1875,2.625 -4.1875,4.625 1.5427,-4.72066 3.07794,-9.41664 5,-14 z"
       style="fill:#226a54"
       id="path75" />
    <path
       d="m 159.64304,618.26593 c 0,0.99 0,1.98 0,3 -2,1 -2,1 -4,2 -0.5775,0.39188 -1.155,0.78375 -1.75,1.1875 -3.5479,1.28119 -6.56002,0.4275 -10.25,-0.1875 2.9844,-1.54078 6.01007,-2.86973 9.125,-4.125 0.86882,-0.3532 1.73765,-0.7064 2.63281,-1.07031 2.24219,-0.80469 2.24219,-0.80469 4.24219,-0.80469 z"
       style="fill:#033344"
       id="path76" />
    <path
       d="m 440.64304,533.26593 c 0.99,0.33 1.98,0.66 3,1 -1.65,2.31 -3.3,4.62 -5,7 -0.66,-0.33 -1.32,-0.66 -2,-1 -0.99,0.495 -1.98,0.99 -3,1.5 -0.99,0.495 -1.98,0.99 -3,1.5 -0.66,-0.33 -1.32,-0.66 -2,-1 1.92841,-1.53376 3.86621,-3.05172 5.8125,-4.5625 0.5472,-0.43763 1.09441,-0.87527 1.6582,-1.32617 1.45149,-1.11721 2.9874,-2.12262 4.5293,-3.11133 z"
       style="fill:#4f3729"
       id="path77" />
    <path
       d="m 434.64304,195.26593 c 0.99,0 1.98,0 3,0 -1.35237,2.9388 -2.89943,5.29233 -5,7.75 -0.51563,0.6136 -1.03125,1.22719 -1.5625,1.85938 -1.4375,1.39062 -1.4375,1.39062 -3.4375,1.39062 1.49102,-4.60862 3.69454,-7.5333 7,-11 z"
       style="fill:#e7ebf4"
       id="path78" />
    <path
       d="m 353.64304,332.26593 c 2.125,0.375 2.125,0.375 4,1 -0.33,1.32 -0.66,2.64 -1,4 -0.99,0 -1.98,0 -3,0 0,0.66 0,1.32 0,2 -0.66,0 -1.32,0 -2,0 0,-0.66 0,-1.32 0,-2 -1.65,0.66 -3.3,1.32 -5,2 2.33333,-2.33333 4.66666,-4.66666 7,-7 z"
       style="fill:#012342"
       id="path79" />
    <path
       d="m 376.64304,314.26593 c 0.99,0.33 1.98,0.66 3,1 -1.14431,3.87302 -2.2332,7.00264 -5,10 -0.66,0 -1.32,0 -2,0 0.4382,-4.55737 0.85041,-7.57653 4,-11 z"
       style="fill:#eaf1f6"
       id="path80" />
    <path
       d="m 470.64304,128.26593 c 0.66,0.33 1.32,0.66 2,1 -0.72575,0.70512 -1.45149,1.41024 -2.19922,2.13672 -2.73779,2.73779 -5.18064,5.66221 -7.61328,8.67578 -0.7902,0.97582 -1.58039,1.95164 -2.39454,2.95703 -0.88751,1.10409 -0.88751,1.10409 -1.79296,2.23047 -0.66,-0.33 -1.32,-0.66 -2,-1 1.57676,-2.10937 3.16097,-4.21239 4.75,-6.3125 0.44343,-0.5949 0.88687,-1.1898 1.34375,-1.80273 2.38099,-3.13381 4.55738,-5.71739 7.90625,-7.88477 z"
       style="fill:#5f7d8e"
       id="path81" />
    <path
       d="m 564.64304,256.26593 c 8.36628,7.05025 8.36628,7.05025 11,10 0,0.66 0,1.32 0,2 -3.375,0.125 -3.375,0.125 -7,0 -0.66,-0.66 -1.32,-1.32 -2,-2 1.65,0 3.3,0 5,0 -0.50532,-0.55429 -1.01063,-1.10859 -1.53125,-1.67968 -0.64969,-0.72446 -1.29938,-1.44891 -1.96875,-2.19532 -0.97454,-1.07894 -0.97454,-1.07894 -1.96875,-2.17968 -1.53125,-1.94532 -1.53125,-1.94532 -1.53125,-3.94532 z"
       style="fill:#246b54"
       id="path82" />
    <path
       d="m 167.64304,617.26593 c -1.41469,0.96126 -2.83184,1.91889 -4.25,2.875 -0.78891,0.53367 -1.57782,1.06735 -2.39063,1.61719 -4.10271,2.62193 -4.10271,2.62193 -6.35937,3.50781 -0.99,-0.33 -1.98,-0.66 -3,-1 1.1875,-1.5 1.1875,-1.5 3,-3 2.6875,-0.1875 2.6875,-0.1875 5,0 0,-0.99 0,-1.98 0,-3 3.14428,-1.90903 4.52074,-2.04523 8,-1 z"
       style="fill:#1c2b3a"
       id="path83" />
    <path
       d="m 180.64304,598.26593 c 0.33,0.66 0.66,1.32 1,2 0.66,0.33 1.32,0.66 2,1 -0.93138,1.29609 -1.87036,2.58672 -2.8125,3.875 -0.78311,1.07895 -0.78311,1.07895 -1.58204,2.17969 -1.60546,1.94531 -1.60546,1.94531 -4.60546,3.94531 -0.3125,-2.25 -0.3125,-2.25 0,-5 1.62935,-1.37868 3.29749,-2.71274 5,-4 0.86965,-2.12946 0.86965,-2.12946 1,-4 z"
       style="fill:#162f39"
       id="path84" />
    <path
       d="m 372.64304,319.26593 c 0.66,0.33 1.32,0.66 2,1 -0.47933,4.31392 -1.7458,6.1657 -5,9 0,-0.66 0,-1.32 0,-2 -1.32,-0.33 -2.64,-0.66 -4,-1 2.31,-2.31 4.62,-4.62 7,-7 z"
       style="fill:#d9e6ee"
       id="path85" />
    <path
       d="m 391.64304,305.26593 c 0.72656,1.74219 0.72656,1.74219 1,4 -1.47657,2.07032 -1.47657,2.07032 -3.625,4.125 -0.69352,0.68321 -1.38704,1.36641 -2.10157,2.07032 -2.34902,1.86468 -4.44783,2.84299 -7.27343,3.80468 4,-4.66666 8,-9.33333 12,-14 z"
       style="fill:#163245"
       id="path86" />
    <path
       d="m 517.64304,261.26593 c 0,3 0,3 -1.86329,5.08594 -0.80824,0.75539 -1.61648,1.51078 -2.44921,2.28906 -3.20557,3.00425 -5.5776,5.76027 -7.6875,9.625 -0.33,-0.66 -0.66,-1.32 -1,-2 2.78417,-6.17361 6.79602,-9.78442 12,-14 0.33,-0.33 0.66,-0.66 1,-1 z"
       style="fill:#25704f"
       id="path87" />
    <path
       d="m 68.643036,626.26593 c 2.97,0.495 2.97,0.495 6,1 0,0.99 0,1.98 0,3 -5.28,-0.33 -10.56,-0.66 -16,-1 0,-0.33 0,-0.66 0,-1 3.3,0 6.6,0 10,0 0,-0.66 0,-1.32 0,-2 z"
       style="fill:#e0a770"
       id="path88" />
    <path
       d="m 56.643036,587.26593 c -0.33,2.31 -0.66,4.62 -1,7 -0.66,-1.32 -1.32,-2.64 -2,-4 -0.796641,0.45053 -0.796641,0.45053 -1.609375,0.91016 -0.706406,0.38027 -1.412812,0.76055 -2.140625,1.15234 -1.044141,0.57428 -1.044141,0.57428 -2.109375,1.16016 -2.502031,0.90858 -3.67386,0.66071 -6.140625,-0.22266 1.933702,-1.00732 3.872103,-2.00563 5.8125,-3 1.078945,-0.55687 2.157891,-1.11375 3.269531,-1.6875 2.917969,-1.3125 2.917969,-1.3125 5.917969,-1.3125 z"
       style="fill:#a3835f"
       id="path89" />
    <path
       d="m 228.64304,560.26593 c 6.15234,-0.0977 6.15234,-0.0977 8,0 0.33,0.33 0.66,0.66 1,1 2.57391,0.53177 5.15859,0.96431 7.75,1.40235 1.11375,0.29584 1.11375,0.29584 2.25,0.59765 0.33,0.66 0.66,1.32 1,2 -6.86037,-0.65965 -13.34444,-2.23627 -20,-4 0,-0.33 0,-0.66 0,-1 z"
       style="fill:#203139"
       id="path90" />
    <path
       d="m 322.64304,265.26593 c 2,3 2,3 1.75781,5.48047 -0.20883,0.89332 -0.41766,1.78664 -0.63281,2.70703 -0.20368,0.90106 -0.40735,1.80211 -0.61719,2.73047 -0.25137,1.03061 -0.25137,1.03061 -0.50781,2.08203 -0.99,0.33 -1.98,0.66 -3,1 -0.40653,-5.42039 0.96006,-9.07015 3,-14 z"
       style="fill:#153a5b"
       id="path91" />
    <path
       d="m 85.643036,622.26593 c -2,2 -2,2 -4.75,2.26563 -1.0725,-0.005 -2.145,-0.0103 -3.25,-0.0156 -1.60875,0.008 -1.60875,0.008 -3.25,0.0156 -2.75,-0.26563 -2.75,-0.26563 -4.75,-2.26563 1.915837,-0.1958 3.832725,-0.38132 5.75,-0.5625 1.601016,-0.15662 1.601016,-0.15662 3.234375,-0.3164 2.657037,-0.1067 4.515231,0.0596 7.015625,0.8789 z"
       style="fill:#002d52"
       id="path92" />
    <path
       d="m 117.95554,361.57843 c 0.55687,0.22688 1.11375,0.45375 1.6875,0.6875 -0.25,1.875 -0.25,1.875 -1,4 -2.0625,1.25 -2.0625,1.25 -4,2 0,-0.99 0,-1.98 0,-3 -1.32,-0.33 -2.64,-0.66 -4,-1 4.43077,-3.07692 4.43077,-3.07692 7.3125,-2.6875 z"
       style="fill:#013036"
       id="path93" />
    <path
       d="m 574.64304,313.26593 c 1.32,0.66 2.64,1.32 4,2 0,0.99 0,1.98 0,3 -2.27142,-0.11402 -4.54215,-0.24158 -6.8125,-0.375 -1.26457,-0.0696 -2.52914,-0.13922 -3.83204,-0.21093 -3.35546,-0.41407 -3.35546,-0.41407 -6.35546,-2.41407 4.29,0 8.58,0 13,0 0,-0.66 0,-1.32 0,-2 z"
       style="fill:#206553"
       id="path94" />
    <path
       d="m 517.64304,310.26593 c -0.375,2.9375 -0.375,2.9375 -1,6 -0.99,0.495 -0.99,0.495 -2,1 0,-0.66 0,-1.32 0,-2 -1.32,-0.33 -2.64,-0.66 -4,-1 3.625,-4 3.625,-4 7,-4 z"
       style="fill:#03323e"
       id="path95" />
    <path
       d="m 390.83054,296.01593 c 0.92812,0.0825 1.85625,0.165 2.8125,0.25 0,0.99 0,1.98 0,3 -0.99,0 -1.98,0 -3,0 0,0.66 0,1.32 0,2 -2.97,-0.495 -2.97,-0.495 -6,-1 1.82315,-3.24116 2.3625,-3.95 6.1875,-4.25 z"
       style="fill:#03223c"
       id="path96" />
    <path
       d="m 292.64304,34.265933 c 0.66,0.33 1.32,0.66 2,1 -3.63,3.63 -7.26,7.26 -11,11 0,-3.523988 0.55115,-4.015044 2.8125,-6.5625 0.7831,-0.899121 0.7831,-0.899121 1.58203,-1.816407 1.60547,-1.621093 1.60547,-1.621093 4.60547,-3.621093 z"
       style="fill:#dee8ee"
       id="path97" />
    <path
       d="m 109.64304,493.26593 c 2.6875,0.3125 2.6875,0.3125 5,1 0.3125,2.25 0.3125,2.25 0,5 -2.5,2.3125 -2.5,2.3125 -5,4 0.30937,-0.5775 0.61875,-1.155 0.9375,-1.75 0.98833,-2.09294 1.57936,-3.99535 2.0625,-6.25 -1.98,0.33 -3.96,0.66 -6,1 1.1875,-1.5625 1.1875,-1.5625 3,-3 z"
       style="fill:#023438"
       id="path98" />
    <path
       d="m 522.64304,202.26593 c -1.24918,3.45925 -2.67528,6.14693 -5,9 -0.625,-3.375 -0.625,-3.375 -1,-7 2,-2 2,-2 6,-2 z"
       style="fill:#02313e"
       id="path99" />
    <path
       d="m 131.64304,624.26593 c 2.41696,-0.0541 4.83271,-0.0937 7.25,-0.125 0.68191,-0.0168 1.36382,-0.0335 2.0664,-0.0508 3.74442,-0.0363 6.50712,0.0963 9.6836,2.17578 -2.64,0.33 -5.28,0.66 -8,1 0,-0.33 0,-0.66 0,-1 -3.63,-0.33 -7.26,-0.66 -11,-1 0,-0.33 0,-0.66 0,-1 z"
       style="fill:#0e253b"
       id="path100" />
    <path
       d="m 584.64304,408.26593 c 0.6875,1.75 0.6875,1.75 1,4 -1.4375,2.25 -1.4375,2.25 -3,4 0.99,0.33 1.98,0.66 3,1 -2.31,0 -4.62,0 -7,0 1.83827,-3.15133 3.75972,-6.11965 6,-9 z"
       style="fill:#237254"
       id="path101" />
    <path
       d="m 502.64304,203.26593 c 0.33,0.99 0.66,1.98 1,3 -0.99,1.485 -0.99,1.485 -2,3 0.99,0.66 1.98,1.32 3,2 -2.7088,1.3544 -5.00934,1.06502 -8,1 2,-3 4,-6 6,-9 z"
       style="fill:#226752"
       id="path102" />
    <path
       d="m 464.64304,118.26593 c 0.66,0.33 1.32,0.66 2,1 -3.3,3.3 -6.6,6.6 -10,10 -0.66,-0.33 -1.32,-0.66 -2,-1 1.09966,-1.2955 2.20491,-2.58626 3.3125,-3.875 0.61488,-0.71929 1.22976,-1.43859 1.86328,-2.17968 1.82422,-1.94532 1.82422,-1.94532 4.82422,-3.94532 z"
       style="fill:#203d56"
       id="path103" />
    <path
       d="m 373.64304,21.265933 c 5.875,2.75 5.875,2.75 7,5 -3.375,0.625 -3.375,0.625 -7,1 -0.66,-0.66 -1.32,-1.32 -2,-2 0.66,-0.66 1.32,-1.32 2,-2 0,-0.66 0,-1.32 0,-2 z"
       style="fill:#697d97"
       id="path104" />
    <path
       d="m 417.64304,573.26593 c -0.99,1.98 -1.98,3.96 -3,6 -0.33,-1.32 -0.66,-2.64 -1,-4 -2.97,0 -5.94,0 -9,0 0,-0.33 0,-0.66 0,-1 4.38585,-0.70173 8.5579,-1.10834 13,-1 z"
       style="fill:#bc8d66"
       id="path105" />
    <path
       d="m 578.64304,413.26593 c 0.66,0.33 1.32,0.66 2,1 -0.33,0.66 -0.66,1.32 -1,2 5.445,-0.495 5.445,-0.495 11,-1 -1.4375,2.0625 -1.4375,2.0625 -4,4 -3.07583,0.0582 -5.98736,-0.40777 -9,-1 0.33,-1.65 0.66,-3.3 1,-5 z"
       style="fill:#03363b"
       id="path106" />
    <path
       d="m 317.64304,291.26593 c 1.65,0.33 3.3,0.66 5,1 0,0.99 0,1.98 0,3 -2.3125,0.6875 -2.3125,0.6875 -5,1 -1.8125,-1.4375 -1.8125,-1.4375 -3,-3 0.99,0 1.98,0 3,0 0,-0.66 0,-1.32 0,-2 z"
       style="fill:#0b3c5c"
       id="path107" />
    <path
       d="m 318.64304,285.26593 c 1,2 1,2 0.0625,5.125 -0.35063,0.94875 -0.70125,1.8975 -1.0625,2.875 -1.32,-0.33 -2.64,-0.66 -4,-1 1.29299,-2.88438 2.65941,-4.87219 5,-7 z"
       style="fill:#042943"
       id="path108" />
    <path
       d="m 552.64304,205.26593 c 4.875,3.625 4.875,3.625 6,7 -2.97,-0.33 -5.94,-0.66 -9,-1 0,-0.33 0,-0.66 0,-1 1.65,0 3.3,0 5,0 -0.66,-1.65 -1.32,-3.3 -2,-5 z"
       style="fill:#236855"
       id="path109" />
    <path
       d="m 455.64304,145.26593 c 0.66,0 1.32,0 2,0 -1.40977,3.03853 -3.08871,5.59396 -5.125,8.25 -0.53883,0.70641 -1.07766,1.41282 -1.63282,2.14063 -0.40992,0.53109 -0.81984,1.06219 -1.24218,1.60937 -0.33,-0.99 -0.66,-1.98 -1,-3 1.36328,-2.26172 1.36328,-2.26172 3.3125,-4.6875 0.6355,-0.80824 1.27101,-1.61648 1.92578,-2.44922 0.58136,-0.61488 1.16273,-1.22976 1.76172,-1.86328 z"
       style="fill:#869cab"
       id="path110" />
    <path
       d="m 417.64304,548.26593 c 0.66,0.33 1.32,0.66 2,1 -0.99,1.32 -1.98,2.64 -3,4 1.65,0 3.3,0 5,0 -3.0881,1.76463 -4.23313,2 -8,2 0.56371,-3.26954 1.49962,-4.82576 4,-7 z"
       style="fill:#40332c"
       id="path111" />
    <path
       d="m 64.643036,414.26593 c 0.33,1.32 0.66,2.64 1,4 -1.214844,1.70313 -1.214844,1.70313 -2.9375,3.25 -0.565898,0.52078 -1.131797,1.04157 -1.714844,1.57813 -0.444726,0.38672 -0.889453,0.77344 -1.347656,1.17187 -0.66,-0.33 -1.32,-0.66 -2,-1 2.31,-2.97 4.62,-5.94 7,-9 z"
       style="fill:#227350"
       id="path112" />
    <path
       d="m 557.64304,315.26593 c 2.97,0.495 2.97,0.495 6,1 -1.32,0.33 -2.64,0.66 -4,1 0.35062,0.76313 0.70125,1.52625 1.0625,2.3125 0.9375,2.6875 0.9375,2.6875 -0.0625,5.6875 -2.03436,-3.72965 -3,-5.66905 -3,-10 z"
       style="fill:#043237"
       id="path113" />
    <path
       d="m 300.64304,84.265933 c 0.66,0.33 1.32,0.66 2,1 -0.48211,0.470507 -0.96422,0.941015 -1.46094,1.425781 -0.94746,0.933926 -0.94746,0.933926 -1.91406,1.886719 -0.93973,0.922324 -0.93973,0.922324 -1.89844,1.863281 -1.90743,1.912344 -1.90743,1.912344 -3.72656,4.824219 0.41515,-4.843405 2.46208,-6.815879 6,-10 0.33,-0.33 0.66,-0.66 1,-1 z"
       style="fill:#d2dde4"
       id="path114" />
    <path
       d="m 662.64304,605.26593 c 0,3 0,3 -2.375,5.6875 -2.625,2.3125 -2.625,2.3125 -4.625,2.3125 1.01176,-3.4032 1.64843,-4.75725 4.625,-6.8125 0.78375,-0.39187 1.5675,-0.78375 2.375,-1.1875 z"
       style="fill:#f1f1ed"
       id="path115" />
    <path
       d="m 588.64304,443.26593 c 0.66,0.66 1.32,1.32 2,2 -0.59813,0.53625 -1.19625,1.0725 -1.8125,1.625 -2.40066,2.60643 -3.72769,5.16341 -5.1875,8.375 -0.6836,-1.73437 -0.6836,-1.73437 -1,-4 1.21484,-2.14062 1.21484,-2.14062 2.9375,-4.25 0.56589,-0.7064 1.13179,-1.41281 1.71484,-2.14062 0.44473,-0.5311 0.88945,-1.06219 1.34766,-1.60938 z"
       style="fill:#226e4d"
       id="path116" />
    <path
       d="m 428.64304,306.26593 c 0.66,0.33 1.32,0.66 2,1 -2.31,2.64 -4.62,5.28 -7,8 -0.33,-1.32 -0.66,-2.64 -1,-4 1.98,-1.65 3.96,-3.3 6,-5 z"
       style="fill:#29435b"
       id="path117" />
    <path
       d="m 494.64304,221.26593 c 2.31,0 4.62,0 7,0 -1.07401,2.91518 -1.77811,4.7781 -4,7 0,-1.98 0,-3.96 0,-6 -0.99,-0.33 -1.98,-0.66 -3,-1 z"
       style="fill:#ced8dd"
       id="path118" />
    <path
       d="m 411.64304,582.26593 c 1,3 1,3 1,5 -1.53125,1.28907 -1.53125,1.28907 -3.5,2.625 -0.64969,0.44602 -1.29938,0.89203 -1.96875,1.35157 -0.50532,0.33773 -1.01063,0.67546 -1.53125,1.02343 1.65167,-3.57863 3.78286,-6.7482 6,-10 z"
       style="fill:#182d3c"
       id="path119" />
    <path
       d="m 637.64304,554.26593 c 4.455,0.99 4.455,0.99 9,2 -4,2 -4,2 -7,3 -0.66,-1.65 -1.32,-3.3 -2,-5 z"
       style="fill:#d3dee7"
       id="path120" />
    <path
       d="m 311.64304,353.26593 c 0.66,0.33 1.32,0.66 2,1 -2.31,2.31 -4.62,4.62 -7,7 -0.33,-0.99 -0.66,-1.98 -1,-3 1.98,-1.65 3.96,-3.3 6,-5 z"
       style="fill:#183953"
       id="path121" />
    <path
       d="m 113.64304,289.26593 c -0.75,4.75 -0.75,4.75 -3,7 0,-0.99 0,-1.98 0,-3 -0.99,-0.33 -1.98,-0.66 -3,-1 3.75,-3 3.75,-3 6,-3 z"
       style="fill:#013039"
       id="path122" />
    <path
       d="m 445.64304,181.26593 c 1.32,0.33 2.64,0.66 4,1 -0.56372,3.26954 -1.49963,4.82576 -4,7 -0.66,-0.33 -1.32,-0.66 -2,-1 1.32,-1.98 2.64,-3.96 4,-6 -0.66,-0.33 -1.32,-0.66 -2,-1 z"
       style="fill:#8f98ac"
       id="path123" />
    <path
       d="m 196.64304,298.26593 c 0.6875,1.6875 0.6875,1.6875 1,4 -1.375,2.625 -1.375,2.625 -3,5 -0.33,0.66 -0.66,1.32 -1,2 -0.66,0 -1.32,0 -2,0 1.22527,-4.05281 2.6988,-7.44361 5,-11 z"
       style="fill:#ccdbe3"
       id="path124" />
    <path
       d="m 328.64304,281.26593 c 2.76223,2.76224 2.57856,5.20707 3,9 -0.33,-0.66 -0.66,-1.32 -1,-2 -0.99,0 -1.98,0 -3,0 0.33,-2.31 0.66,-4.62 1,-7 z"
       style="fill:#e27d1d"
       id="path125" />
    <path
       d="m 143.64304,441.26593 c 2.35953,2.35953 2.49141,3.77896 3,7 -3.65317,-1.24976 -4.78066,-1.67098 -7,-5 0.99,0.33 1.98,0.66 3,1 0.33,-0.99 0.66,-1.98 1,-3 z"
       style="fill:#1e6951"
       id="path126" />
    <path
       d="m 330.64304,284.26593 c 4,0 4,0 6,1 -0.99,1.98 -1.98,3.96 -3,6 -1.74628,-2.61941 -2.38723,-4.03825 -3,-7 z"
       style="fill:#162534"
       id="path127" />
  </g>
</svg>
